<svg width="28" height="28" viewBox="0 0 28 28" fill="none" xmlns="http://www.w3.org/2000/svg">
<path d="M11.6667 20.6016V23.3333C11.6667 24.6219 12.7113 25.6666 14 25.6666C15.2887 25.6666 16.3333 24.6219 16.3333 23.3332V20.6016M14 2.33325V3.49992M3.49999 13.9999H2.33333M6.41666 6.41659L5.71655 5.71647M21.5833 6.41659L22.2836 5.71647M25.6667 13.9999H24.5M21 13.9999C21 17.8659 17.866 20.9999 14 20.9999C10.134 20.9999 6.99999 17.8659 6.99999 13.9999C6.99999 10.1339 10.134 6.99992 14 6.99992C17.866 6.99992 21 10.1339 21 13.9999Z" stroke="#005C65" stroke-width="2" stroke-linecap="round" stroke-linejoin="round"/>
</svg>
