<svg width="28" height="28" viewBox="0 0 28 28" fill="none" xmlns="http://www.w3.org/2000/svg">
<path d="M14 17.4999C15.933 17.4999 17.5 15.9329 17.5 13.9999C17.5 12.0669 15.933 10.4999 14 10.4999C12.067 10.4999 10.5 12.0669 10.5 13.9999C10.5 15.9329 12.067 17.4999 14 17.4999Z" stroke="#005C65" stroke-width="2" stroke-linecap="round" stroke-linejoin="round"/>
<path d="M21.8485 17.1817C21.7073 17.5016 21.6652 17.8565 21.7276 18.2005C21.79 18.5446 21.954 18.8621 22.1985 19.112L22.2621 19.1757C22.4594 19.3727 22.6158 19.6066 22.7226 19.8641C22.8293 20.1216 22.8843 20.3977 22.8843 20.6764C22.8843 20.9552 22.8293 21.2312 22.7226 21.4887C22.6158 21.7462 22.4594 21.9802 22.2621 22.1772C22.0651 22.3744 21.8312 22.5309 21.5737 22.6376C21.3162 22.7444 21.0401 22.7993 20.7614 22.7993C20.4826 22.7993 20.2066 22.7444 19.9491 22.6376C19.6916 22.5309 19.4576 22.3744 19.2606 22.1772L19.197 22.1136C18.947 21.869 18.6295 21.705 18.2855 21.6426C17.9414 21.5803 17.5866 21.6224 17.2667 21.7636C16.953 21.898 16.6854 22.1212 16.497 22.4058C16.3086 22.6903 16.2074 23.0238 16.2061 23.3651V23.5454C16.2061 24.108 15.9826 24.6475 15.5848 25.0453C15.187 25.4431 14.6474 25.6666 14.0849 25.6666C13.5223 25.6666 12.9827 25.4431 12.5849 25.0453C12.1871 24.6475 11.9636 24.108 11.9636 23.5454V23.4499C11.9554 23.0989 11.8418 22.7584 11.6375 22.4728C11.4332 22.1872 11.1478 21.9696 10.8182 21.8484C10.4983 21.7072 10.1434 21.6651 9.79939 21.7275C9.45533 21.7899 9.13785 21.9539 8.88789 22.1984L8.82425 22.262C8.62725 22.4593 8.3933 22.6157 8.13579 22.7225C7.87828 22.8292 7.60225 22.8842 7.32349 22.8842C7.04473 22.8842 6.76871 22.8292 6.5112 22.7225C6.25369 22.6157 6.01974 22.4593 5.82274 22.262C5.62551 22.065 5.46906 21.8311 5.36231 21.5736C5.25556 21.3161 5.20061 21.04 5.20061 20.7613C5.20061 20.4825 5.25556 20.2065 5.36231 19.949C5.46906 19.6915 5.62551 19.4575 5.82274 19.2605L5.88637 19.1969C6.13088 18.9469 6.2949 18.6294 6.35729 18.2854C6.41967 17.9413 6.37756 17.5865 6.23637 17.2666C6.10193 16.9529 5.87869 16.6854 5.59414 16.4969C5.30959 16.3085 4.97615 16.2073 4.63486 16.206H4.45456C3.89198 16.206 3.35244 15.9825 2.95463 15.5847C2.55683 15.1869 2.33334 14.6473 2.33334 14.0848C2.33334 13.5222 2.55683 12.9826 2.95463 12.5848C3.35244 12.187 3.89198 11.9636 4.45456 11.9636H4.55001C4.90106 11.9553 5.24153 11.8417 5.52715 11.6374C5.81276 11.4331 6.03031 11.1477 6.15153 10.8181C6.29271 10.4982 6.33482 10.1433 6.27244 9.79929C6.21006 9.45524 6.04603 9.13776 5.80153 8.8878L5.73789 8.82416C5.54067 8.62716 5.38421 8.39321 5.27746 8.1357C5.17071 7.87819 5.11577 7.60216 5.11577 7.3234C5.11577 7.04464 5.17071 6.76862 5.27746 6.51111C5.38421 6.25359 5.54067 6.01965 5.73789 5.82265C5.93489 5.62542 6.16884 5.46896 6.42635 5.36222C6.68386 5.25547 6.95989 5.20052 7.23865 5.20052C7.51741 5.20052 7.79343 5.25547 8.05094 5.36222C8.30846 5.46896 8.5424 5.62542 8.7394 5.82265L8.80304 5.88628C9.053 6.13079 9.37048 6.29481 9.71454 6.3572C10.0586 6.41958 10.4134 6.37746 10.7333 6.23628H10.8182C11.1319 6.10184 11.3994 5.8786 11.5879 5.59405C11.7763 5.3095 11.8774 4.97606 11.8788 4.63477V4.45446C11.8788 3.89188 12.1023 3.35235 12.5001 2.95454C12.8979 2.55674 13.4374 2.33325 14 2.33325C14.5626 2.33325 15.1021 2.55674 15.4999 2.95454C15.8977 3.35235 16.1212 3.89188 16.1212 4.45446V4.54992C16.1226 4.89121 16.2237 5.22465 16.4122 5.5092C16.6006 5.79375 16.8681 6.01699 17.1818 6.15143C17.5017 6.29262 17.8566 6.33473 18.2006 6.27235C18.5447 6.20996 18.8622 6.04594 19.1121 5.80143L19.1758 5.7378C19.3728 5.54057 19.6067 5.38412 19.8642 5.27737C20.1217 5.17062 20.3978 5.11567 20.6765 5.11567C20.9553 5.11567 21.2313 5.17062 21.4888 5.27737C21.7463 5.38412 21.9803 5.54057 22.1773 5.7378C22.3745 5.9348 22.531 6.16875 22.6377 6.42626C22.7445 6.68377 22.7994 6.95979 22.7994 7.23855C22.7994 7.51731 22.7445 7.79334 22.6377 8.05085C22.531 8.30836 22.3745 8.54231 22.1773 8.73931L22.1136 8.80295C21.8691 9.05291 21.7051 9.37039 21.6427 9.71445C21.5803 10.0585 21.6225 10.4134 21.7636 10.7333V10.8181C21.8981 11.1318 22.1213 11.3993 22.4059 11.5878C22.6904 11.7762 23.0239 11.8773 23.3652 11.8787H23.5455C24.108 11.8787 24.6476 12.1022 25.0454 12.5C25.4432 12.8978 25.6667 13.4373 25.6667 13.9999C25.6667 14.5625 25.4432 15.102 25.0454 15.4998C24.6476 15.8976 24.108 16.1211 23.5455 16.1211H23.45C23.1087 16.1225 22.7753 16.2236 22.4907 16.4121C22.2062 16.6005 21.9829 16.868 21.8485 17.1817Z" stroke="#005C65" stroke-width="2" stroke-linecap="round" stroke-linejoin="round"/>
</svg>
