<svg width="28" height="28" viewBox="0 0 28 28" fill="none" xmlns="http://www.w3.org/2000/svg">
<path d="M9.33331 16.3333C9.33331 16.3333 11.0833 18.6666 14 18.6666C16.9166 18.6666 18.6666 16.3333 18.6666 16.3333M19.8333 10.7799C19.3725 11.3457 18.7425 11.6666 18.0833 11.6666C17.4241 11.6666 16.8116 11.3457 16.3333 10.7799M11.6666 10.7799C11.2058 11.3457 10.5758 11.6666 9.91665 11.6666C9.25748 11.6666 8.64498 11.3457 8.16665 10.7799M25.6666 13.9999C25.6666 20.4432 20.4433 25.6666 14 25.6666C7.55666 25.6666 2.33331 20.4432 2.33331 13.9999C2.33331 7.5566 7.55666 2.33325 14 2.33325C20.4433 2.33325 25.6666 7.5566 25.6666 13.9999Z" stroke="#005C65" stroke-width="2" stroke-linecap="round" stroke-linejoin="round"/>
</svg>
