<svg width="28" height="28" viewBox="0 0 28 28" fill="none" xmlns="http://www.w3.org/2000/svg">
<path d="M21 18.4764C22.6986 19.3296 24.1548 20.6989 25.2178 22.4112C25.4283 22.7503 25.5335 22.9199 25.5699 23.1546C25.6439 23.6317 25.3176 24.2183 24.8733 24.4071C24.6546 24.5 24.4086 24.5 23.9167 24.5M18.6667 13.4543C20.3953 12.5952 21.5833 10.8113 21.5833 8.75C21.5833 6.68866 20.3953 4.9048 18.6667 4.04572M16.3333 8.75C16.3333 11.6495 13.9828 14 11.0833 14C8.18384 14 5.83333 11.6495 5.83333 8.75C5.83333 5.8505 8.18384 3.5 11.0833 3.5C13.9828 3.5 16.3333 5.8505 16.3333 8.75ZM2.98577 22.0947C4.84579 19.302 7.78093 17.5 11.0833 17.5C14.3857 17.5 17.3209 19.302 19.1809 22.0947C19.5884 22.7065 19.7921 23.0125 19.7687 23.4032C19.7504 23.7075 19.5509 24.08 19.3078 24.2639C18.9956 24.5 18.5661 24.5 17.7072 24.5H4.45942C3.60053 24.5 3.17109 24.5 2.85885 24.2639C2.61572 24.08 2.41627 23.7075 2.39801 23.4032C2.37455 23.0125 2.57829 22.7065 2.98577 22.0947Z" stroke="#005C65" stroke-width="2" stroke-linecap="round" stroke-linejoin="round"/>
</svg>
