<svg width="28" height="28" viewBox="0 0 28 28" fill="none" xmlns="http://www.w3.org/2000/svg">
<path d="M6.99998 23.4351H10.0453C10.4424 23.4351 10.837 23.4823 11.2219 23.5768L14.4397 24.3587C15.1379 24.5288 15.8652 24.5454 16.5707 24.4083L20.1284 23.7162C21.0683 23.5331 21.9328 23.0831 22.6104 22.424L25.1275 19.9754C25.8464 19.2773 25.8464 18.1445 25.1275 17.4453C24.4803 16.8157 23.4555 16.7448 22.7233 17.2787L19.7897 19.419C19.3695 19.7261 18.8583 19.8915 18.3326 19.8915H15.4997L17.3029 19.8914C18.3192 19.8914 19.1425 19.0906 19.1425 18.1019V17.744C19.1425 16.9231 18.5681 16.2073 17.7497 16.0089L14.9667 15.3321C14.5138 15.2222 14.0499 15.1667 13.5836 15.1667C12.458 15.1667 10.4205 16.0987 10.4205 16.0987L6.99998 17.5291M2.33331 17.0334L2.33331 23.8C2.33331 24.4534 2.33331 24.7801 2.46047 25.0297C2.57232 25.2492 2.7508 25.4277 2.97032 25.5395C3.21989 25.6667 3.54658 25.6667 4.19998 25.6667H5.13331C5.78671 25.6667 6.1134 25.6667 6.36297 25.5395C6.58249 25.4277 6.76097 25.2492 6.87282 25.0297C6.99998 24.7801 6.99998 24.4534 6.99998 23.8V17.0334C6.99998 16.38 6.99998 16.0533 6.87282 15.8037C6.76097 15.5842 6.58249 15.4057 6.36297 15.2939C6.11341 15.1667 5.78671 15.1667 5.13331 15.1667H4.19998C3.54659 15.1667 3.21989 15.1667 2.97032 15.2939C2.7508 15.4057 2.57232 15.5842 2.46047 15.8037C2.33331 16.0533 2.33331 16.38 2.33331 17.0334ZM20.0566 4.191C19.3603 2.734 17.755 1.96212 16.1938 2.70714C14.6326 3.45216 13.9675 5.21898 14.6212 6.77C15.0251 7.72858 16.1825 9.59004 17.0077 10.8722C17.3127 11.346 17.4651 11.5829 17.6878 11.7215C17.8788 11.8403 18.1179 11.9044 18.3428 11.897C18.6049 11.8883 18.8554 11.7594 19.3563 11.5015C20.7121 10.8037 22.6451 9.77035 23.4743 9.14218C24.8158 8.12578 25.1482 6.25755 24.1438 4.83732C23.1394 3.4171 21.3881 3.27735 20.0566 4.191Z" stroke="#005C65" stroke-width="2" stroke-linecap="round" stroke-linejoin="round"/>
</svg>
