<svg width="31" height="31" viewBox="0 0 31 31" fill="none" xmlns="http://www.w3.org/2000/svg">
<path d="M10.3333 3.875H10.075C7.9048 3.875 6.81969 3.875 5.99079 4.29735C5.26166 4.66886 4.66886 5.26166 4.29735 5.99079C3.875 6.81969 3.875 7.9048 3.875 10.075V10.3333M10.3333 27.125H10.075C7.9048 27.125 6.81969 27.125 5.99079 26.7026C5.26166 26.3311 4.66886 25.7383 4.29735 25.0092C3.875 24.1803 3.875 23.0952 3.875 20.925V20.6667M27.125 10.3333V10.075C27.125 7.9048 27.125 6.81969 26.7026 5.99079C26.3311 5.26166 25.7383 4.66886 25.0092 4.29735C24.1803 3.875 23.0952 3.875 20.925 3.875H20.6667M27.125 20.6667V20.925C27.125 23.0952 27.125 24.1803 26.7026 25.0092C26.3311 25.7383 25.7383 26.3311 25.0092 26.7026C24.1803 27.125 23.0952 27.125 20.925 27.125H20.6667M9.6875 10.3333V12.2708M21.3125 10.3333V12.2708M14.2083 16.2751C15.2417 16.2751 16.1458 15.371 16.1458 14.3376V10.3333M19.6336 19.6333C17.3086 21.9583 13.5628 21.9583 11.2378 19.6333" stroke="#005C65" stroke-width="2" stroke-linecap="round" stroke-linejoin="round"/>
</svg>
