<svg width="31" height="31" viewBox="0 0 31 31" fill="none" xmlns="http://www.w3.org/2000/svg">
<path d="M7.74998 25.9458H11.1216C11.5612 25.9458 11.9981 25.9981 12.4243 26.1027L15.9868 26.9685C16.7598 27.1568 17.5651 27.1751 18.3461 27.0234L22.2851 26.2571C23.3256 26.0544 24.2828 25.5561 25.0329 24.8264L27.8198 22.1155C28.6156 21.3426 28.6156 20.0885 27.8198 19.3143C27.1032 18.6173 25.9686 18.5388 25.1579 19.1299L21.91 21.4995C21.4449 21.8395 20.8789 22.0226 20.2968 22.0226H17.1604L19.1568 22.0225C20.282 22.0225 21.1935 21.1359 21.1935 20.0413V19.6451C21.1935 18.7362 20.5576 17.9437 19.6515 17.724L16.5702 16.9747C16.0688 16.853 15.5553 16.7916 15.039 16.7916C13.7928 16.7916 11.537 17.8234 11.537 17.8234L7.74998 19.407M2.58331 18.8582L2.58331 26.3499C2.58331 27.0733 2.58331 27.435 2.7241 27.7113C2.84793 27.9543 3.04553 28.1519 3.28857 28.2758C3.56488 28.4166 3.92658 28.4166 4.64998 28.4166H5.68331C6.40671 28.4166 6.76841 28.4166 7.04472 28.2758C7.28776 28.152 7.48536 27.9543 7.6092 27.7113C7.74998 27.435 7.74998 27.0733 7.74998 26.3499V18.8582C7.74998 18.1348 7.74998 17.7731 7.6092 17.4968C7.48536 17.2538 7.28776 17.0562 7.04472 16.9324C6.76842 16.7916 6.40671 16.7916 5.68331 16.7916H4.64998C3.92658 16.7916 3.56488 16.7916 3.28858 16.9324C3.04553 17.0562 2.84793 17.2538 2.7241 17.4968C2.58331 17.7731 2.58331 18.1348 2.58331 18.8582ZM22.2055 4.6399C21.4346 3.02679 19.6573 2.17221 17.9289 2.99705C16.2004 3.8219 15.4641 5.77802 16.1877 7.49522C16.635 8.5565 17.9164 10.6174 18.83 12.037C19.1676 12.5615 19.3364 12.8238 19.5829 12.9772C19.7944 13.1088 20.0591 13.1797 20.3081 13.1715C20.5983 13.1619 20.8756 13.0192 21.4302 12.7337C22.9312 11.9611 25.0714 10.817 25.9894 10.1216C27.4747 8.99626 27.8426 6.92786 26.7306 5.35547C25.6186 3.78307 23.6797 3.62835 22.2055 4.6399Z" stroke="#005C65" stroke-width="2" stroke-linecap="round" stroke-linejoin="round"/>
</svg>
