<svg width="31" height="31" viewBox="0 0 31 31" fill="none" xmlns="http://www.w3.org/2000/svg">
<path d="M27.1245 14.8542C27.1245 20.9178 22.2089 25.8333 16.1453 25.8333C14.7545 25.8333 13.424 25.5747 12.1995 25.1029C11.9756 25.0167 11.8636 24.9736 11.7746 24.953C11.687 24.9329 11.6237 24.9244 11.5339 24.921C11.4426 24.9175 11.3424 24.9279 11.1421 24.9486L4.52747 25.6323C3.89682 25.6975 3.5815 25.7301 3.39549 25.6166C3.23348 25.5178 3.12314 25.3527 3.09376 25.1652C3.06004 24.95 3.21072 24.6711 3.51208 24.1133L5.6248 20.2027C5.79879 19.8807 5.88579 19.7196 5.92519 19.5648C5.96411 19.4119 5.97352 19.3016 5.96107 19.1443C5.94846 18.9851 5.87859 18.7778 5.73883 18.3631C5.36744 17.2613 5.16614 16.0812 5.16614 14.8542C5.16614 8.79054 10.0817 3.875 16.1453 3.875C22.2089 3.875 27.1245 8.79054 27.1245 14.8542Z" stroke="#005C65" stroke-width="2" stroke-linecap="round" stroke-linejoin="round"/>
<path fill-rule="evenodd" clip-rule="evenodd" d="M16.1413 11.5594C14.9792 10.2176 13.0413 9.85665 11.5852 11.0854C10.1292 12.3141 9.92417 14.3685 11.0676 15.8217C11.776 16.722 13.5541 18.3664 14.8045 19.4873C15.2638 19.8991 15.4935 20.1049 15.7691 20.1879C16.0055 20.259 16.2771 20.259 16.5136 20.1879C16.7892 20.1049 17.0188 19.8991 17.4782 19.4873C18.7286 18.3664 20.5066 16.722 21.215 15.8217C22.3585 14.3685 22.1785 12.3012 20.6974 11.0854C19.2163 9.86957 17.3035 10.2176 16.1413 11.5594Z" stroke="#005C65" stroke-width="2" stroke-linecap="round" stroke-linejoin="round"/>
</svg>
