<?xml version="1.0" encoding="utf-8"?>
<!-- Generator: Adobe Illustrator 19.0.0, SVG Export Plug-In . SVG Version: 6.00 Build 0)  -->
<svg version="1.1" id="layer" xmlns="http://www.w3.org/2000/svg" xmlns:xlink="http://www.w3.org/1999/xlink" x="0px" y="0px"
	 viewBox="-153 -46 652 652" style="enable-background:new -153 -46 652 652;" xml:space="preserve">
<style type="text/css">
	.st0{fill-rule:evenodd;clip-rule:evenodd;fill:#556666;}
	.st1{fill-rule:evenodd;clip-rule:evenodd;fill:#11BB77;}
</style>
<title>ecclesia_group_db</title>
<path class="st0" d="M144.3,245.9c0-1.6-1.3-3-3-2.9c-7.9,0.6-14.1,3.3-18.7,8.3c-5.2,5.6-7.8,13.5-7.8,23.5v28.3
	c0,1.6,1.3,2.9,2.9,2.9h2.3c1.6,0,2.9-1.3,2.9-2.9v-28.3c0-7.7,1.8-13.6,5.5-17.6c3.1-3.4,7.4-5.4,12.9-6c1.7-0.1,3-1.2,3-3V245.9z
	 M154.1,270.6c0.6-6.3,2.9-11.4,6.9-14.7c4-3.3,9.5-5,16.6-5c7.1,0,12.6,1.7,16.6,5c4,3.3,6.3,8.4,7,14.7H154.1z M177.2,298.9
	c-7.8,0-13.7-2-17.7-6.1c-3.3-3.3-5.2-7.8-5.8-13.6h51c1.6,0,2.5-0.3,3.3-1.1c1.3-1.1,1.2-3.3,1.2-3.3c0-10.1-2.8-17.7-8.4-23.4
	c-5.6-5.6-13.5-8.5-23.5-8.5c-10.2,0-17.8,2.8-23.5,8.5c-9.2,9-8.4,23.7-8.4,23.7c0,10.2,2.8,17.8,8.4,23.5
	c9.1,9.2,23.5,8.4,23.5,8.4c10.1,0,18-2.8,23.6-8.4c3-3.1,4.6-5.1,6-9.5c1-3.1-2-2.9-2-2.9h-3.8c-1.7,0-2.3,1.1-3.2,2.8
	C193.4,296.8,185,298.9,177.2,298.9L177.2,298.9z M265,292.1c-4,4.1-9.9,6.1-17.6,6.1c-7.6,0-13.5-2-17.5-6.1
	c-4-4.1-6.1-10.1-6.1-17.7c0-7.8,2-13.4,6.1-17.4c4.1-4,9.9-6.1,17.5-6.1c7.7,0,13.6,2,17.6,6.1c4,4,6,9.7,6,17.4
	C271.1,282,269,288,265,292.1L265,292.1z M276.9,218.3h-2.3c-1.6,0-2.9,1.3-2.9,2.9c0,0,0,31.6,0,31.6c-2.6-3.4-6.4-6.4-10.4-7.9
	c-4-1.5-8.3-2.3-13.4-2.3c-10.1,0-17.9,2.8-23.5,8.3c-5.6,5.6-8.4,13.2-8.4,23.2c0,10,2.8,17.9,8.4,23.5c5.6,5.6,13.4,8.3,23.5,8.3
	c10.1,0,18-2.8,23.6-8.3c5.6-5.6,8.4-13.5,8.4-23.2v-53C279.9,219.7,278.6,218.3,276.9,218.3L276.9,218.3z M54.8,275
	c0,10.1,2.8,17.9,8.3,23.6c5.5,5.6,13.3,8.5,23.4,8.5c9.2,0,15.3-2.6,18.3-4.6c2.4-1.4,2.1-3.1,2.1-5V296c0-3.8-3.1-2.3-4.8-1.3
	c-3.7,2-7.5,4.2-15.6,4.2c-7.7,0-13.6-2-17.6-6.1c-4-4.1-6-10-6-17.7c0-7.7,2-13.6,6-17.7c4-4.1,9.9-6.1,17.6-6.1
	c5.4,0,9.6,1,13.4,3c1.7,0.8,4.8,2.4,4.8-1.2v-1.7c0-1.9,0.3-3.3-2.1-4.7c-4.9-2.5-9.1-3.6-16.1-3.6c-10,0-17.8,2.8-23.4,8.5
	C57.6,257.1,54.8,265,54.8,275L54.8,275z M347.7,301.8c0-1.8-1.3-2.9-3-3c-5.5-0.5-9.8-2.5-12.9-6c-3.7-4.1-5.5-10-5.5-17.7v-23.2
	h13.5c1.6,0,2.9-1.3,2.9-2.9v-2.3c0-1.6-1.3-2.9-2.9-2.9h-13.5v-19.5c0-1.6-1.3-2.9-2.9-2.9h-2.3c-1.6,0-3,1.3-3,2.9v19.5h-5.8
	c-1.6,0-3,1.3-3,2.9v2.3c0,1.6,1.3,2.9,3,2.9h5.8v23.2c0,10.1,2.6,17.9,7.8,23.6c4.6,5,10.9,7.8,18.7,8.4c1.7,0.1,3-1.3,3-2.9V301.8
	z M296.7,218.3h-2.2c-1.5,0-2.8,1.4-2.8,3v7.7c0,1.7,1.3,3,2.8,3h2.2c1.5,0,2.8-1.4,2.8-3v-7.7C299.6,219.7,298.3,218.3,296.7,218.3
	L296.7,218.3z M296.7,243h-2.2c-1.5,0-2.8,1.3-2.8,2.9v56.2c0,1.6,1.3,2.9,2.8,2.9h2.2c1.5,0,2.8-1.3,2.8-2.9v-56.2
	C299.6,244.3,298.3,243,296.7,243L296.7,243z M397.8,284.7c0,10.1-6.2,13.4-21.7,13.4c-11.1,0-17.6-3.7-17.6-11.6
	c0-8.7,6.7-12,21.8-12h17.5V284.7z M397.6,261v6.6H380c-20.3,0-29.4,5.9-29.4,19.1c0,12.2,9.5,19.4,25.5,19.4
	c20.8,0,29.6-6.2,29.6-20.8V261c0-9-6.1-13.1-6.1-13.1c-3.1-2.4-7-3.8-11.7-4.4c-2.9-0.4-5.4-0.5-8.3-0.5c-2.8,0-5.3,0.1-8,0.4
	c-5,0.5-9.2,2-12.4,4.5c-4.1,3.2-6.1,7.5-6.1,13.1c0,0,0.1,2.5,2.9,2.5h2.2c1.6,0,2.9-1,2.9-2.6c0-5.9,4.9-7.8,4.9-7.8
	c1.4-0.7,6.8-2.3,13.6-2.3c7.2,0,11.9,1.6,13.3,2.3C392.8,253.2,397.6,255,397.6,261L397.6,261z M440.3,277.6
	c14.9,0,20.3,0.9,20.3,9.5c0,7.9-7.6,11.2-18.6,11.2c-8.8,0-14.6-1.1-17.9-3.9c-2.7-2.5-2.5-6.1-2.5-6.1c0-1.6-1.3-2.6-2.9-2.6h-2.2
	c-2.8,0-2.9,2.5-2.9,2.5c0,9.1,6.1,13.2,6.1,13.2c4.8,3.2,12.1,4.8,22.3,4.8c16,0,26.6-6.9,26.6-19.1c0-13.2-8-17.2-28.3-17.2
	c-8.7,0-12.9-2.2-12.9-2.2c-5.1-2.2-4.8-7-4.8-7c0-5.5,4.8-7.6,4.8-7.6c1.4-0.7,5.7-2.1,12.9-2.1c6.9,0,11.7,1.5,13.2,2.2
	c0,0,4.5,2,4.8,6.3c0.1,1.5,1.3,2.4,2.9,2.4h2.2c2.8,0,2.8-2.5,2.8-2.5c0-3.6-1.9-8.2-5.9-11.3c-3.2-2.5-7.3-3.9-11.9-4.5
	c-2.8-0.4-5.2-0.4-8.1-0.4c-3,0-4.9,0.1-7.9,0.5c-4.7,0.6-8.9,2.3-11.7,4.5c0,0-6.1,4-6.1,12.5c0,0-0.4,7.4,6.1,12.3
	C420.7,272.8,425.9,277.6,440.3,277.6L440.3,277.6z M440.3,277.6"/>
<path class="st1" d="M26.5,292.3c0,1.6-0.5,2.8-0.5,2.8c-8.3,23-30,38.4-54.1,38.4c-8.1,0-15.9-1.7-22.9-4.9c0,0-9.9,4.9-22.9,4.9
	c-31.8,0-57.6-26.2-57.6-58.6c0-32.4,25.8-58.6,57.6-58.6c13.2,0,22.9,4.9,22.9,4.9c7-3.1,14.8-4.9,22.9-4.9
	c24.1,0,45.8,15.4,54.1,38.4c0,0,0.5,1.2,0.5,2.8c0,1.1-0.2,2.4-1.1,3.6c-1.4,2-3.9,3.3-6.6,3.3h-37.6c-6.2,0-8.8-7.4-8.8-7.4
	c-4.4-11.7-12.9-21.1-23.4-26.7c-15.8,8.4-26.6,25.3-26.6,44.6c0,19.4,10.8,36.2,26.6,44.6c10.5-5.6,19-15,23.4-26.7
	c0,0,2.6-7.3,8.8-7.3h37.6c2.8,0,5.2,1.3,6.6,3.3C26.3,289.8,26.5,291.1,26.5,292.3L26.5,292.3z M-20.2,252.1
	c-4.4-10.8-11.8-19.7-21-26c4.3-1.2,8.9-1.9,13.6-1.9c20.3,0,38.7,12.7,46.3,31.8H-16C-18.7,256-20.2,252.1-20.2,252.1L-20.2,252.1z
	 M-123.5,274.3c0-27.6,22.2-50.1,49.4-50.1c4.6,0,9.1,0.7,13.4,1.9c-15.2,10.5-25.2,28.2-25.2,48.3c0,20,10,37.8,25.2,48.3
	c-4.3,1.2-8.8,1.9-13.4,1.9C-101.4,324.5-123.5,302-123.5,274.3L-123.5,274.3z M-41.1,323.6c9.2-6.3,16.6-15.3,21-26
	c0,0,1.5-3.8,4.2-3.8h34.7c-7.5,19.1-25.9,31.8-46.3,31.8C-32.3,325.5-36.8,324.8-41.1,323.6L-41.1,323.6z M-41.1,323.6"/>
</svg>
