<?xml version="1.0" encoding="UTF-8" standalone="no"?>
<svg
   xmlns:svg="http://www.w3.org/2000/svg"
   xmlns="http://www.w3.org/2000/svg"
   version="1.1"
   width="442.03751"
   height="442.03751"
   id="svg3754">
  <defs
     id="defs3756" />
  <path
     d="m 0,442.0375 442.0375,0 L 442.0375,0 0,0 0,442.0375 z"
     id="path70"
     style="fill:#003f6a;fill-opacity:1;fill-rule:nonzero;stroke:none" />
  <path
     d="m 389.90889,326.66139 -23.16433,0 c -5.34561,-11.58215 -14.25496,-17.59597 -25.83711,-17.59597 -15.1459,0 -24.72346,10.69122 -24.72346,27.17353 0,18.26416 8.90936,29.40086 23.83252,29.40086 10.46849,0 20.71424,-6.45929 26.72805,-17.37324 l 26.05987,11.58215 c -9.35483,20.93698 -26.72807,31.85094 -51.00605,31.85094 -36.30561,0 -60.13813,-21.82791 -60.13813,-55.23799 0,-31.18272 22.49611,-54.12431 53.23339,-54.12431 11.58215,0 20.93697,3.11828 31.85092,10.24576 l 0,-8.68662 23.16433,0 0,42.76489 m -114.72128,39.20115 c -10.91396,16.92777 -28.73266,25.83712 -51.67425,25.83712 -36.52833,0 -59.46991,-20.49151 -59.46991,-53.23337 0,-32.96462 23.83251,-57.01987 56.79711,-57.01987 31.6282,0 57.01985,24.27799 54.34705,62.14274 l -77.0659,0 c 0.22274,12.02763 6.68201,26.28259 25.83713,26.28259 8.90935,0 14.70042,-2.89554 24.50071,-12.25036 l 26.72806,8.24115 z m -33.18733,-40.98302 c -1.78188,-13.36403 -10.02303,-21.38245 -22.27338,-21.38245 -12.25036,0 -19.60057,6.90475 -21.60519,21.38245 l 43.87857,0 m -70.59772,-26.05986 -26.28258,0 0,-35.19194 -22.71884,0 0,100.00748 22.71884,0 0,25.61439 -84.86603,0 0,-25.61439 22.71885,0 0,-100.00748 -22.71885,0 0,35.19194 -26.28259,0 0,-60.80632 137.4312,0 0,60.80632 m 208.77732,-89.8909 -82.42043,0 0,-26.97752 21.78338,0 0,-63.10939 -19.80104,0 0,-26.97752 53.70557,0 0,29.69932 0.49447,0 c 6.93147,-20.2955 21.5339,-31.43219 40.84047,-31.43219 l 5.44361,0 0,35.3924 -4.45467,0 c -30.1938,0 -38.36368,20.2955 -38.36368,44.05229 l 0,12.37509 22.77232,0 0,26.97752 m -86.87955,0 -55.93737,0 0,-9.89829 c -11.3817,7.92042 -22.27338,11.63115 -33.41007,11.63115 -22.27339,0 -35.88688,-13.8585 -35.88688,-36.38133 l 0,-55.43844 -17.07922,0 0,-26.97752 54.94397,0 0,73.01213 c 0,11.38616 2.72182,15.0969 11.38615,15.0969 5.93809,0 12.62455,-2.97126 20.04605,-8.41487 l 0,-52.71664 -15.59137,0 0,-26.97752 53.46057,0 0,90.08691 18.06816,0 0,26.97752 m -255.1193,-57.17131 28.46093,0 c -0.49446,18.06816 11.13669,30.44325 25.73912,30.44325 10.14775,0 18.56263,-7.92041 18.56263,-18.06816 0,-30.68827 -74.49554,-26.48305 -74.49554,-79.19969 0,-32.67059 24.50071,-45.78516 45.29069,-45.78516 13.11902,0 23.76124,5.19861 30.69271,15.59137 l 0.49448,0 0,-13.8585 28.21591,0 0,50.98377 -28.21591,0 C 110.6987,76.51798 101.53989,67.11415 88.67032,67.11415 c -9.65328,0 -16.58476,5.69308 -16.58476,13.61349 0,27.22252 77.47128,21.03497 77.47128,80.43362 0,40.09655 -30.93773,49.99484 -48.76089,49.99484 -14.84743,0 -26.23359,-5.44361 -33.65953,-16.3353 l -0.49447,0 0,14.10796 -28.46093,0 0,-57.17131"
     id="path82"
     style="fill:#ffffff;fill-opacity:1;fill-rule:nonzero;stroke:none" />
</svg>
