<svg width="722" height="734" viewBox="0 0 722 734" fill="none" xmlns="http://www.w3.org/2000/svg">
<rect width="576" height="640" transform="translate(44 39)" fill="#E4E7EC"/>
<g filter="url(#filter0_d_11_332)">
<g clip-path="url(#clip0_11_332)">
<path d="M134.537 225.049C143.209 210.028 162.415 204.882 177.436 213.554L552.755 430.244C567.775 438.916 572.922 458.123 564.25 473.144L446.483 677.121C437.811 692.142 418.604 697.288 403.584 688.616L28.2647 471.926C13.2442 463.254 8.09784 444.047 16.7699 429.026L134.537 225.049Z" fill="url(#paint0_linear_11_332)"/>
<path d="M383.515 594.618C384.62 592.705 387.066 592.049 388.979 593.154L443.698 624.745C445.611 625.85 446.266 628.296 445.162 630.209L424.038 666.797C422.934 668.71 420.487 669.365 418.574 668.261L363.856 636.669C361.943 635.564 361.287 633.118 362.392 631.205L383.515 594.618Z" fill="white" fill-opacity="0.1"/>
<path fill-rule="evenodd" clip-rule="evenodd" d="M399.046 639.651C395.854 640.221 392.439 639.706 389.396 637.949C382.606 634.029 380.241 625.412 384.115 618.703C387.989 611.993 396.633 609.733 403.423 613.653C406.466 615.41 408.62 618.11 409.722 621.159C412.914 620.589 416.329 621.104 419.372 622.861C426.162 626.781 428.526 635.398 424.653 642.107C420.779 648.816 412.135 651.077 405.345 647.157C402.302 645.4 400.148 642.7 399.046 639.651Z" fill="#ED0006"/>
<path fill-rule="evenodd" clip-rule="evenodd" d="M399.046 639.651C402.976 638.949 406.566 636.601 408.704 632.899C410.841 629.197 411.079 624.913 409.722 621.159C412.914 620.589 416.329 621.104 419.372 622.861C426.162 626.781 428.526 635.398 424.653 642.107C420.779 648.816 412.135 651.077 405.345 647.157C402.302 645.4 400.148 642.7 399.046 639.651Z" fill="#F9A000"/>
<path fill-rule="evenodd" clip-rule="evenodd" d="M399.046 639.651C402.976 638.949 406.566 636.601 408.704 632.899C410.841 629.197 411.079 624.913 409.722 621.159C405.792 621.861 402.202 624.209 400.064 627.911C397.927 631.613 397.689 635.897 399.046 639.651Z" fill="#FF5E00"/>
<path d="M43.4131 442.949L51.013 429.786L47.0285 429.879L48.492 427.344L52.4576 427.284L54.7748 428.622L45.7303 444.287L43.4131 442.949ZM52.6963 448.294L53.8755 446.277L64.2263 444.102C65.0581 443.934 65.6996 443.685 66.1508 443.356C66.6093 443.031 66.9663 442.647 67.2217 442.205C67.5441 441.646 67.7097 441.075 67.7186 440.49C67.7316 439.898 67.5959 439.346 67.3115 438.833C67.0271 438.321 66.602 437.901 66.0363 437.575C65.4561 437.24 64.858 437.078 64.242 437.09C63.6374 437.099 63.0784 437.255 62.5649 437.558C62.0515 437.861 61.6476 438.276 61.3534 438.802L59.0253 437.458C59.6115 436.443 60.3529 435.686 61.2495 435.188C62.1575 434.688 63.1376 434.456 64.1896 434.493C65.2459 434.522 66.2926 434.836 67.3297 435.435C68.3161 436.005 69.0711 436.74 69.5947 437.642C70.1226 438.537 70.3873 439.502 70.3889 440.538C70.3978 441.577 70.1154 442.594 69.5418 443.588C69.1272 444.306 68.6812 444.86 68.2037 445.252C67.7263 445.644 67.1754 445.944 66.5512 446.155C65.9271 446.365 65.1877 446.557 64.333 446.731L56.3543 448.39L56.481 447.593L64.5422 452.247L63.2923 454.412L52.6963 448.294ZM73.3733 460.638C72.5973 460.19 71.9521 459.625 71.4379 458.941C70.9278 458.25 70.5796 457.488 70.3932 456.655C70.2141 455.826 70.2257 454.977 70.4279 454.108L72.9772 454.767C72.7981 455.563 72.8649 456.293 73.1778 456.957C73.4948 457.614 73.9745 458.123 74.6169 458.484C75.194 458.808 75.7755 458.965 76.3614 458.955C76.9473 458.945 77.4913 458.79 77.9933 458.49C78.4995 458.183 78.9201 457.739 79.2551 457.159C79.7575 456.289 79.9001 455.414 79.6828 454.534C79.4727 453.658 78.9325 452.969 78.0622 452.467C77.8156 452.324 77.5408 452.214 77.2379 452.136C76.9421 452.062 76.6484 452.018 76.3566 452.004L76.3268 449.594L84.6733 447.9L84.5358 448.691L76.9206 444.294L78.1705 442.129L87.5916 447.568L86.3417 449.733L79.2008 451.5L79.6061 450.747C80.5925 451.317 81.3206 452.032 81.7904 452.893C82.2644 453.747 82.4795 454.664 82.4357 455.645C82.4033 456.622 82.1191 457.575 81.5831 458.503C81.0053 459.504 80.2566 460.256 79.3372 460.76C78.425 461.268 77.4459 461.515 76.4 461.501C75.3613 461.491 74.3524 461.204 73.3733 460.638ZM91.5096 470.718L93.0861 467.987L86.0148 463.905L87.2585 461.751L98.5741 453.909L101.174 455.41L89.8585 463.252L94.3297 465.833L96.7792 461.591L99.0855 462.922L96.636 467.165L98.1917 468.063L96.948 470.217L95.3924 469.319L93.8159 472.049L91.5096 470.718ZM111.597 482.315L119.197 469.152L115.212 469.245L116.676 466.71L120.641 466.65L122.959 467.988L113.914 483.653L111.597 482.315ZM120.88 487.66L122.059 485.643L132.41 483.467C133.242 483.3 133.883 483.051 134.335 482.722C134.793 482.397 135.15 482.013 135.405 481.571C135.728 481.012 135.894 480.441 135.902 479.856C135.915 479.264 135.78 478.712 135.495 478.199C135.211 477.687 134.786 477.267 134.22 476.941C133.64 476.606 133.042 476.444 132.426 476.456C131.821 476.465 131.262 476.621 130.749 476.924C130.235 477.227 129.831 477.642 129.537 478.168L127.209 476.824C127.795 475.809 128.537 475.052 129.433 474.554C130.341 474.054 131.321 473.822 132.373 473.858C133.43 473.888 134.476 474.202 135.514 474.801C136.5 475.371 137.255 476.106 137.779 477.008C138.306 477.903 138.571 478.868 138.573 479.903C138.582 480.943 138.299 481.96 137.726 482.954C137.311 483.672 136.865 484.226 136.388 484.618C135.91 485.01 135.359 485.31 134.735 485.521C134.111 485.731 133.371 485.923 132.517 486.096L124.538 487.756L124.665 486.959L132.726 491.613L131.476 493.778L120.88 487.66ZM141.557 500.004C140.781 499.556 140.136 498.991 139.622 498.307C139.112 497.616 138.763 496.854 138.577 496.021C138.398 495.192 138.409 494.343 138.612 493.474L141.161 494.133C140.982 494.929 141.049 495.659 141.362 496.323C141.679 496.98 142.158 497.489 142.801 497.85C143.378 498.174 143.959 498.331 144.545 498.321C145.131 498.311 145.675 498.156 146.177 497.856C146.683 497.549 147.104 497.105 147.439 496.525C147.941 495.655 148.084 494.78 147.867 493.9C147.657 493.024 147.116 492.335 146.246 491.833C145.999 491.69 145.725 491.58 145.422 491.502C145.126 491.428 144.832 491.384 144.54 491.37L144.511 488.96L152.857 487.266L152.72 488.057L145.104 483.66L146.354 481.495L155.775 486.934L154.526 489.099L147.385 490.866L147.79 490.113C148.776 490.683 149.504 491.398 149.974 492.259C150.448 493.113 150.663 494.03 150.619 495.011C150.587 495.988 150.303 496.941 149.767 497.869C149.189 498.87 148.44 499.622 147.521 500.126C146.609 500.634 145.63 500.881 144.584 500.867C143.545 500.857 142.536 500.57 141.557 500.004ZM159.693 510.084L161.27 507.353L154.199 503.271L155.442 501.117L166.758 493.275L169.358 494.776L158.042 502.618L162.514 505.199L164.963 500.956L167.269 502.288L164.82 506.531L166.375 507.429L165.132 509.583L163.576 508.685L162 511.415L159.693 510.084ZM179.781 521.681L187.381 508.518L183.396 508.611L184.86 506.076L188.825 506.016L191.142 507.354L182.098 523.019L179.781 521.681ZM189.064 527.026L190.243 525.009L200.594 522.833C201.426 522.666 202.067 522.417 202.518 522.088C202.977 521.763 203.334 521.379 203.589 520.937C203.912 520.378 204.077 519.806 204.086 519.222C204.099 518.63 203.964 518.078 203.679 517.565C203.395 517.053 202.97 516.633 202.404 516.307C201.824 515.972 201.226 515.81 200.61 515.822C200.005 515.831 199.446 515.987 198.933 516.29C198.419 516.593 198.015 517.008 197.721 517.534L195.393 516.19C195.979 515.175 196.721 514.418 197.617 513.92C198.525 513.419 199.505 513.188 200.557 513.224C201.614 513.254 202.66 513.568 203.697 514.167C204.684 514.736 205.439 515.472 205.962 516.374C206.49 517.269 206.755 518.234 206.757 519.269C206.765 520.309 206.483 521.326 205.909 522.32C205.495 523.038 205.049 523.592 204.571 523.984C204.094 524.375 203.543 524.676 202.919 524.886C202.295 525.097 201.555 525.289 200.701 525.462L192.722 527.122L192.849 526.325L200.91 530.979L199.66 533.144L189.064 527.026ZM209.741 539.37C208.965 538.922 208.32 538.356 207.806 537.673C207.295 536.982 206.947 536.22 206.761 535.387C206.582 534.558 206.593 533.709 206.796 532.84L209.345 533.499C209.166 534.295 209.233 535.025 209.545 535.689C209.862 536.346 210.342 536.855 210.985 537.216C211.562 537.54 212.143 537.697 212.729 537.687C213.315 537.677 213.859 537.522 214.361 537.222C214.867 536.915 215.288 536.471 215.623 535.891C216.125 535.021 216.268 534.145 216.05 533.266C215.84 532.39 215.3 531.701 214.43 531.199C214.183 531.056 213.908 530.946 213.605 530.868C213.31 530.794 213.016 530.75 212.724 530.736L212.694 528.326L221.041 526.632L220.903 527.423L213.288 523.026L214.538 520.861L223.959 526.3L222.709 528.465L215.568 530.232L215.974 529.479C216.96 530.049 217.688 530.764 218.158 531.625C218.632 532.479 218.847 533.396 218.803 534.376C218.771 535.354 218.487 536.307 217.951 537.235C217.373 538.236 216.624 538.988 215.705 539.492C214.793 540 213.814 540.247 212.768 540.233C211.729 540.223 210.72 539.936 209.741 539.37ZM227.877 549.45L229.454 546.719L222.382 542.637L223.626 540.483L234.942 532.641L237.542 534.142L226.226 541.984L230.697 544.565L233.147 540.322L235.453 541.654L233.004 545.897L234.559 546.795L233.316 548.949L231.76 548.051L230.184 550.781L227.877 549.45ZM247.965 561.047L255.564 547.884L251.58 547.977L253.043 545.442L257.009 545.382L259.326 546.72L250.282 562.385L247.965 561.047ZM257.248 566.392L258.427 564.375L268.778 562.199C269.61 562.032 270.251 561.783 270.702 561.454C271.161 561.129 271.518 560.745 271.773 560.302C272.096 559.744 272.261 559.172 272.27 558.588C272.283 557.996 272.147 557.443 271.863 556.931C271.579 556.419 271.153 555.999 270.588 555.673C270.008 555.338 269.409 555.176 268.793 555.188C268.189 555.197 267.63 555.353 267.116 555.656C266.603 555.959 266.199 556.374 265.905 556.9L263.577 555.556C264.163 554.54 264.904 553.784 265.801 553.286C266.709 552.785 267.689 552.553 268.741 552.59C269.797 552.62 270.844 552.934 271.881 553.533C272.868 554.102 273.623 554.838 274.146 555.74C274.674 556.635 274.939 557.6 274.94 558.635C274.949 559.675 274.667 560.692 274.093 561.685C273.679 562.404 273.233 562.958 272.755 563.35C272.278 563.741 271.727 564.042 271.103 564.252C270.479 564.463 269.739 564.655 268.884 564.828L260.906 566.488L261.032 565.691L269.094 570.345L267.844 572.51L257.248 566.392ZM277.925 578.736C277.149 578.288 276.504 577.722 275.989 577.039C275.479 576.348 275.131 575.586 274.945 574.753C274.766 573.924 274.777 573.075 274.979 572.206L277.529 572.865C277.35 573.661 277.416 574.391 277.729 575.055C278.046 575.712 278.526 576.221 279.168 576.582C279.745 576.906 280.327 577.063 280.913 577.053C281.499 577.043 282.043 576.888 282.545 576.588C283.051 576.281 283.472 575.837 283.807 575.257C284.309 574.386 284.452 573.511 284.234 572.632C284.024 571.756 283.484 571.067 282.614 570.565C282.367 570.422 282.092 570.312 281.789 570.234C281.494 570.16 281.2 570.116 280.908 570.102L280.878 567.692L289.225 565.998L289.087 566.789L281.472 562.392L282.722 560.227L292.143 565.666L290.893 567.831L283.752 569.597L284.158 568.845C285.144 569.415 285.872 570.13 286.342 570.991C286.816 571.845 287.031 572.762 286.987 573.742C286.955 574.72 286.671 575.673 286.135 576.601C285.557 577.602 284.808 578.354 283.889 578.858C282.976 579.366 281.997 579.613 280.951 579.599C279.913 579.589 278.904 579.302 277.925 578.736ZM296.061 588.816L297.638 586.085L290.566 582.003L291.81 579.849L303.126 572.007L305.726 573.508L294.41 581.35L298.881 583.931L301.331 579.688L303.637 581.02L301.187 585.263L302.743 586.161L301.499 588.315L299.944 587.417L298.367 590.147L296.061 588.816Z" fill="white"/>
<path d="M62.6445 402.454L69.4278 390.705L74.1764 393.447C74.2906 393.513 74.4289 393.6 74.5913 393.708C74.7568 393.811 74.9078 393.92 75.0444 394.035C75.6375 394.515 76.0526 395.052 76.2899 395.646C76.5327 396.243 76.6121 396.866 76.5282 397.513C76.4443 398.161 76.2202 398.801 75.8559 399.432C75.4885 400.068 75.0452 400.584 74.5262 400.981C74.0071 401.378 73.4284 401.62 72.7899 401.708C72.1569 401.8 71.4842 401.709 70.7718 401.435C70.607 401.369 70.4344 401.291 70.254 401.202C70.0791 401.115 69.9373 401.04 69.8285 400.978L66.7851 399.221L64.3497 403.439L62.6445 402.454ZM67.7178 397.605L70.6959 399.324C70.8047 399.387 70.9275 399.451 71.0643 399.515C71.2066 399.583 71.3454 399.638 71.4808 399.68C71.876 399.799 72.2425 399.811 72.5803 399.716C72.9212 399.616 73.2211 399.448 73.48 399.213C73.7389 398.978 73.9516 398.716 74.118 398.428C74.2845 398.14 74.4031 397.828 74.4739 397.491C74.5479 397.15 74.5416 396.809 74.4551 396.469C74.3717 396.123 74.1795 395.809 73.8785 395.527C73.7777 395.425 73.6624 395.329 73.5327 395.24C73.4085 395.154 73.2919 395.079 73.1831 395.016L70.2051 393.297L67.7178 397.605ZM73.6911 408.832L80.4745 397.083L82.1797 398.067L79.2544 403.134L85.129 406.526L88.0543 401.459L89.7677 402.448L82.9844 414.197L81.2709 413.208L84.201 408.133L78.3264 404.742L75.3964 409.817L73.6911 408.832ZM90.8546 419.068C89.6797 418.389 88.8265 417.556 88.2949 416.567C87.7665 415.573 87.5473 414.489 87.6374 413.316C87.733 412.145 88.131 410.953 88.8313 409.74C89.5316 408.527 90.3647 407.587 91.3306 406.919C92.3019 406.254 93.3486 405.905 94.4706 405.871C95.5957 405.831 96.7457 406.151 97.9206 406.829C99.0901 407.504 99.9391 408.339 100.468 409.333C101.005 410.325 101.225 411.406 101.13 412.576C101.034 413.747 100.636 414.939 99.9358 416.152C99.2355 417.365 98.4024 418.305 97.4365 418.973C96.4706 419.641 95.4224 419.993 94.2918 420.03C93.1699 420.064 92.0241 419.743 90.8546 419.068ZM91.7921 417.444C92.618 417.935 93.414 418.152 94.1801 418.094C94.9548 418.034 95.6755 417.746 96.3423 417.232C97.0123 416.712 97.6063 416.003 98.1245 415.106C98.6427 414.208 98.9562 413.345 99.0651 412.516C99.1771 411.681 99.064 410.916 98.7259 410.22C98.3932 409.528 97.8123 408.939 96.9832 408.453C96.1573 407.961 95.3585 407.743 94.587 407.798C93.821 407.856 93.1029 408.145 92.433 408.665C91.763 409.185 91.1662 409.892 90.6426 410.786C90.119 411.681 89.8012 412.545 89.6892 413.38C89.5803 414.209 89.695 414.971 90.0331 415.667C90.3767 416.366 90.963 416.958 91.7921 417.444ZM98.9876 423.437L105.771 411.688L113.277 416.022L112.349 417.629L106.548 414.28L104.645 417.576L109.467 420.36L108.539 421.967L103.717 419.183L101.621 422.814L107.422 426.163L106.494 427.771L98.9876 423.437ZM109.269 429.373L116.053 417.624L117.782 418.623L118.527 430.693L123.567 421.963L125.297 422.961L118.514 434.71L116.784 433.712L116.044 421.633L110.999 430.372L109.269 429.373ZM121.77 436.59L128.553 424.841L130.259 425.826L123.475 437.575L121.77 436.59ZM125.762 438.895L133.202 435.26L132.652 427.207L134.74 428.413L135.089 434.424L140.452 431.711L142.549 432.921L135.299 436.471L135.863 444.727L133.774 443.521L133.416 437.32L127.859 440.106L125.762 438.895ZM142.062 448.306L148.845 436.557L153.463 439.223C154.209 439.653 154.746 440.167 155.076 440.763C155.406 441.36 155.559 441.974 155.535 442.606C155.515 443.232 155.35 443.812 155.043 444.345C154.669 444.992 154.188 445.454 153.6 445.732C153.018 446.012 152.409 446.081 151.773 445.938L151.987 445.529C152.631 446.147 152.999 446.842 153.091 447.613C153.185 448.378 153.027 449.117 152.616 449.83C152.217 450.521 151.731 451.042 151.158 451.393C150.591 451.747 149.961 451.916 149.267 451.9C148.581 451.881 147.866 451.657 147.121 451.227L142.062 448.306ZM144.729 447.681L147.797 449.452C148.183 449.675 148.571 449.801 148.96 449.83C149.355 449.862 149.718 449.793 150.049 449.621C150.389 449.447 150.669 449.17 150.888 448.789C151.093 448.436 151.197 448.072 151.203 447.698C151.217 447.322 151.124 446.967 150.925 446.635C150.734 446.3 150.443 446.019 150.051 445.793L146.877 443.96L144.729 447.681ZM147.805 442.353L150.669 444.006C150.984 444.189 151.303 444.289 151.626 444.309C151.957 444.326 152.265 444.257 152.55 444.103C152.844 443.946 153.089 443.696 153.287 443.353C153.551 442.896 153.615 442.433 153.48 441.963C153.345 441.494 153.022 441.111 152.511 440.816L149.647 439.163L147.805 442.353ZM152.261 454.194L162.863 444.65L165.319 446.068L162.354 460.021L160.583 458.999L163.256 446.248L163.697 446.502L154.031 455.216L152.261 454.194ZM155.774 452.687L156.698 451.088L162.833 454.63L161.91 456.23L155.774 452.687ZM164.633 461.338L171.417 449.588L173.122 450.573L169.956 456.056L178.042 453.413L180.163 454.638L171.654 457.373L173.763 466.609L171.577 465.346L169.58 456.709L166.339 462.322L164.633 461.338ZM175.728 467.743L182.511 455.994L190.018 460.328L189.09 461.935L183.288 458.586L181.385 461.882L186.207 464.666L185.279 466.273L180.457 463.489L178.361 467.12L184.162 470.469L183.234 472.077L175.728 467.743ZM186.01 473.679L192.793 461.93L197.542 464.672C197.656 464.738 197.794 464.825 197.956 464.933C198.122 465.036 198.273 465.145 198.41 465.26C199.003 465.74 199.418 466.277 199.655 466.871C199.898 467.468 199.977 468.09 199.893 468.738C199.809 469.386 199.585 470.025 199.221 470.656C198.681 471.592 197.975 472.262 197.104 472.665C196.236 473.063 195.274 473.07 194.22 472.686L193.479 472.367L190.15 470.445L187.715 474.664L186.01 473.679ZM192.88 477.646L193.323 471.526L195.299 472.08L194.83 478.771L192.88 477.646ZM191.083 468.83L194.061 470.549C194.17 470.612 194.293 470.676 194.429 470.74C194.572 470.808 194.711 470.863 194.846 470.905C195.241 471.024 195.608 471.036 195.945 470.941C196.286 470.84 196.586 470.673 196.845 470.438C197.104 470.203 197.317 469.941 197.483 469.653C197.65 469.365 197.768 469.052 197.839 468.716C197.913 468.375 197.907 468.034 197.82 467.694C197.737 467.348 197.545 467.034 197.244 466.752C197.143 466.65 197.028 466.554 196.898 466.465C196.774 466.379 196.657 466.304 196.548 466.241L193.57 464.522L191.083 468.83Z" fill="white"/>
<path d="M170.405 252.372L173.271 254.027L167.303 264.365C166.649 265.498 165.805 266.34 164.773 266.891C163.746 267.445 162.611 267.686 161.368 267.614C160.128 267.537 158.864 267.127 157.577 266.383C156.284 265.637 155.294 264.746 154.607 263.711C153.924 262.67 153.565 261.567 153.531 260.4C153.497 259.234 153.807 258.084 154.462 256.951L160.43 246.613L163.297 248.268L157.466 258.366C157.086 259.026 156.891 259.696 156.882 260.378C156.878 261.062 157.057 261.705 157.418 262.304C157.782 262.899 158.327 263.406 159.053 263.826C159.78 264.245 160.491 264.464 161.188 264.481C161.893 264.497 162.539 264.331 163.125 263.982C163.711 263.633 164.194 263.13 164.575 262.47L170.405 252.372ZM173.939 266.239L169.925 273.193L167.128 271.578L173.98 259.71L176.653 261.254L175.489 263.27L175.628 263.351C176.284 262.844 177.024 262.567 177.848 262.52C178.677 262.477 179.534 262.711 180.42 263.222C181.239 263.695 181.851 264.282 182.257 264.984C182.668 265.688 182.848 266.469 182.8 267.326C182.756 268.187 182.458 269.09 181.906 270.035L177.543 277.591L174.746 275.976L178.859 268.853C179.317 268.059 179.469 267.32 179.316 266.634C179.168 265.951 178.733 265.401 178.012 264.985C177.522 264.702 177.025 264.559 176.519 264.555C176.021 264.549 175.548 264.685 175.099 264.962C174.656 265.241 174.27 265.667 173.939 266.239ZM193.164 270.786L191.915 272.95L185.093 269.011L186.342 266.848L193.164 270.786ZM189.668 264.977L192.465 266.592L186.032 277.733C185.815 278.109 185.705 278.43 185.703 278.697C185.708 278.961 185.785 279.184 185.934 279.366C186.083 279.548 186.274 279.706 186.505 279.84C186.68 279.941 186.848 280.02 187.007 280.078C187.171 280.138 187.298 280.181 187.387 280.205L186.596 282.663C186.417 282.629 186.17 282.562 185.856 282.463C185.548 282.367 185.192 282.21 184.789 281.991C184.077 281.607 183.507 281.138 183.079 280.582C182.655 280.02 182.42 279.398 182.376 278.713C182.337 278.031 182.534 277.321 182.968 276.582L189.668 264.977ZM188.652 284.005L195.503 272.137L198.3 273.752L191.449 285.62L188.652 284.005ZM197.882 271.265C197.439 271.009 197.143 270.642 196.993 270.164C196.846 269.681 196.893 269.231 197.134 268.813C197.378 268.391 197.744 268.125 198.233 268.016C198.725 267.902 199.192 267.972 199.635 268.228C200.083 268.487 200.378 268.856 200.52 269.336C200.67 269.814 200.623 270.265 200.379 270.687C200.138 271.104 199.772 271.37 199.28 271.484C198.796 271.597 198.33 271.523 197.882 271.265ZM207.103 278.834L205.854 280.997L199.031 277.058L200.28 274.895L207.103 278.834ZM203.606 273.024L206.403 274.639L199.971 285.78C199.754 286.156 199.644 286.478 199.641 286.744C199.647 287.008 199.724 287.231 199.873 287.413C200.022 287.595 200.212 287.753 200.444 287.887C200.619 287.988 200.786 288.068 200.945 288.125C201.109 288.186 201.236 288.228 201.325 288.252L200.534 290.711C200.355 290.676 200.109 290.609 199.795 290.51C199.486 290.415 199.13 290.257 198.728 290.039C198.015 289.655 197.445 289.185 197.018 288.629C196.593 288.068 196.359 287.445 196.315 286.76C196.276 286.078 196.473 285.368 196.906 284.629L203.606 273.024ZM214.778 277.99L205.642 293.814L202.845 292.199L211.981 276.376L214.778 277.99ZM213.638 298.74C212.448 298.053 211.564 297.212 210.984 296.218C210.412 295.222 210.158 294.134 210.22 292.955C210.286 291.77 210.677 290.557 211.394 289.316C212.099 288.095 212.949 287.158 213.945 286.503C214.949 285.847 216.02 285.503 217.157 285.473C218.297 285.437 219.433 285.747 220.566 286.401C221.298 286.823 221.92 287.34 222.432 287.952C222.952 288.561 223.321 289.255 223.538 290.033C223.76 290.814 223.797 291.666 223.648 292.59C223.503 293.508 223.129 294.488 222.529 295.528L222.034 296.386L212.306 290.77L213.394 288.884L220.441 292.953C220.745 292.414 220.904 291.871 220.919 291.323C220.936 290.769 220.811 290.254 220.544 289.777C220.282 289.303 219.883 288.912 219.347 288.602C218.775 288.272 218.193 288.121 217.6 288.15C217.009 288.173 216.464 288.339 215.963 288.647C215.47 288.953 215.068 289.37 214.757 289.898L213.806 291.543C213.408 292.234 213.192 292.899 213.159 293.539C213.129 294.174 213.265 294.754 213.566 295.278C213.871 295.797 214.327 296.232 214.935 296.583C215.342 296.818 215.743 296.974 216.138 297.051C216.536 297.123 216.922 297.116 217.294 297.029C217.667 296.942 218.012 296.767 218.329 296.503L220.771 298.305C220.208 298.9 219.546 299.321 218.785 299.568C218.032 299.814 217.216 299.871 216.336 299.741C215.46 299.606 214.56 299.272 213.638 298.74ZM225.699 305.672C224.767 305.134 224.071 304.413 223.611 303.508C223.151 302.604 222.97 301.573 223.069 300.414C223.168 299.256 223.593 298.025 224.346 296.722C225.107 295.403 225.966 294.415 226.922 293.758C227.886 293.1 228.873 292.752 229.882 292.717C230.895 292.677 231.857 292.92 232.768 293.446C233.464 293.847 233.967 294.296 234.278 294.792C234.593 295.282 234.786 295.768 234.858 296.249C234.934 296.726 234.96 297.15 234.938 297.521L235.054 297.588L238.471 291.67L241.276 293.289L232.14 309.113L229.389 307.525L230.469 305.655L230.299 305.557C229.988 305.762 229.602 305.948 229.142 306.115C228.685 306.277 228.166 306.341 227.588 306.309C227.009 306.277 226.379 306.065 225.699 305.672ZM227.804 303.828C228.397 304.17 228.994 304.302 229.595 304.223C230.2 304.14 230.777 303.872 231.326 303.42C231.876 302.968 232.372 302.358 232.815 301.591C233.258 300.823 233.535 300.094 233.646 299.402C233.762 298.714 233.702 298.092 233.466 297.537C233.236 296.985 232.819 296.535 232.216 296.187C231.593 295.827 230.979 295.689 230.374 295.772C229.77 295.856 229.197 296.123 228.656 296.573C228.114 297.022 227.631 297.616 227.206 298.352C226.778 299.094 226.501 299.817 226.376 300.521C226.259 301.223 226.313 301.861 226.537 302.437C226.769 303.011 227.191 303.474 227.804 303.828ZM236.745 311.998C236.276 311.728 235.97 311.331 235.825 310.808C235.681 310.285 235.748 309.788 236.027 309.317C236.289 308.85 236.683 308.549 237.208 308.413C237.733 308.276 238.23 308.343 238.699 308.614C239.152 308.876 239.451 309.268 239.596 309.791C239.745 310.317 239.689 310.813 239.426 311.28C239.24 311.591 238.992 311.829 238.684 311.995C238.381 312.163 238.056 312.25 237.709 312.256C237.37 312.26 237.049 312.174 236.745 311.998Z" fill="white"/>
<path d="M279.185 527.8C278.386 527.339 277.779 526.757 277.365 526.054C276.955 525.345 276.75 524.581 276.752 523.763C276.758 522.947 276.992 522.139 277.454 521.34L279.791 517.293C280.252 516.493 280.835 515.887 281.538 515.473C282.246 515.063 283.008 514.861 283.824 514.867C284.642 514.869 285.452 515.1 286.251 515.562C287.051 516.023 287.656 516.609 288.066 517.317C288.48 518.02 288.684 518.779 288.677 519.595C288.675 520.414 288.444 521.223 287.982 522.022L285.646 526.069C285.184 526.869 284.599 527.474 283.891 527.885C283.188 528.298 282.427 528.504 281.608 528.503C280.792 528.496 279.985 528.262 279.185 527.8ZM280.127 526.169C280.563 526.42 281.017 526.544 281.489 526.542C281.971 526.537 282.42 526.419 282.836 526.188C283.255 525.951 283.592 525.613 283.847 525.172L286.315 520.897C286.566 520.462 286.688 520.006 286.68 519.53C286.675 519.048 286.553 518.601 286.313 518.187C286.082 517.77 285.749 517.437 285.314 517.185C284.879 516.934 284.42 516.811 283.939 516.816C283.466 516.819 283.02 516.938 282.6 517.175C282.184 517.406 281.85 517.739 281.599 518.174L279.131 522.449C278.876 522.89 278.752 523.351 278.757 523.832C278.765 524.308 278.884 524.755 279.115 525.171C279.355 525.585 279.692 525.917 280.127 526.169ZM290.414 534.283C289.652 533.844 289.071 533.268 288.669 532.558C288.27 531.842 288.073 531.064 288.078 530.226C288.089 529.391 288.327 528.571 288.792 527.766L290.954 524.021C291.447 523.167 292.057 522.518 292.784 522.075C293.517 521.635 294.303 521.418 295.141 521.423C295.984 521.432 296.82 521.674 297.646 522.152C298.267 522.51 298.781 522.963 299.19 523.511C299.599 524.059 299.868 524.678 299.999 525.37L298.077 525.816C298.02 525.399 297.872 525.009 297.632 524.645C297.401 524.28 297.095 523.987 296.714 523.767C296.224 523.485 295.727 523.353 295.222 523.374C294.72 523.389 294.255 523.523 293.826 523.775C293.403 524.031 293.067 524.374 292.819 524.804L291.575 526.958L291.457 526.39C292.049 526.144 292.669 526.037 293.317 526.071C293.965 526.104 294.575 526.285 295.146 526.615C295.875 527.036 296.426 527.583 296.799 528.255C297.181 528.925 297.367 529.645 297.357 530.416C297.353 531.189 297.14 531.941 296.72 532.67C296.296 533.404 295.726 533.963 295.011 534.348C294.304 534.731 293.541 534.921 292.722 534.92C291.912 534.916 291.143 534.704 290.414 534.283ZM291.361 532.643C291.785 532.888 292.231 533.008 292.698 533.002C293.166 532.996 293.603 532.879 294.011 532.65C294.419 532.422 294.745 532.095 294.99 531.671C295.235 531.247 295.355 530.801 295.349 530.333C295.349 529.869 295.234 529.433 295.005 529.025C294.776 528.618 294.45 528.291 294.026 528.046C293.601 527.801 293.153 527.68 292.68 527.683C292.212 527.688 291.775 527.806 291.367 528.034C290.959 528.263 290.633 528.59 290.388 529.014C290.146 529.433 290.028 529.876 290.034 530.344C290.04 530.811 290.155 531.251 290.381 531.664C290.61 532.072 290.936 532.398 291.361 532.643ZM307.221 527.995L308.942 528.989L299.026 538.929L297.304 537.935L307.221 527.995ZM304.782 542.242L305.667 540.729L313.43 539.097C314.054 538.971 314.535 538.785 314.873 538.538C315.217 538.294 315.485 538.006 315.676 537.674C315.918 537.255 316.042 536.827 316.049 536.388C316.059 535.944 315.957 535.53 315.744 535.146C315.53 534.762 315.211 534.447 314.787 534.202C314.352 533.951 313.903 533.83 313.441 533.838C312.988 533.845 312.569 533.962 312.184 534.189C311.799 534.417 311.496 534.728 311.275 535.122L309.529 534.114C309.969 533.353 310.525 532.785 311.197 532.412C311.878 532.036 312.613 531.863 313.402 531.89C314.194 531.912 314.979 532.148 315.757 532.597C316.497 533.024 317.063 533.576 317.456 534.252C317.852 534.923 318.05 535.647 318.052 536.424C318.058 537.204 317.847 537.966 317.416 538.712C317.105 539.25 316.771 539.666 316.413 539.96C316.055 540.253 315.642 540.479 315.173 540.637C314.705 540.794 314.151 540.938 313.51 541.069L307.526 542.313L307.621 541.716L313.667 545.206L312.729 546.83L304.782 542.242ZM320.156 551.128L321.338 549.08L316.034 546.018L316.967 544.403L325.454 538.522L327.404 539.648L318.917 545.529L322.271 547.465L324.108 544.283L325.837 545.281L324 548.464L325.167 549.137L324.234 550.753L323.068 550.079L321.885 552.127L320.156 551.128Z" fill="white"/>
<g clip-path="url(#clip1_11_332)">
<path d="M529.274 455.281C529.274 461.188 527.719 466.99 524.766 472.105C521.813 477.22 517.565 481.468 512.45 484.421M521.012 454.786C521.012 459.393 519.8 463.918 517.496 467.908C515.193 471.898 511.88 475.211 507.89 477.514M513.194 454.196C513.179 457.553 512.284 460.856 510.601 463.772C508.918 466.687 506.505 469.113 503.604 470.805M505.241 453.839C505.372 456.012 504.874 458.148 503.803 460.002C502.732 461.857 501.132 463.356 499.184 464.329" stroke="white" stroke-width="4.03771" stroke-linecap="round"/>
</g>
</g>
<path d="M135.216 225.441C143.672 210.796 162.398 205.778 177.043 214.234L552.362 430.924C567.007 439.38 572.025 458.106 563.57 472.751L445.803 676.729C437.348 691.374 418.621 696.392 403.976 687.936L28.6573 471.246C14.0123 462.79 8.99456 444.064 17.4499 429.419L135.216 225.441Z" stroke="url(#paint1_linear_11_332)" stroke-opacity="0.3" stroke-width="1.57022"/>
</g>
<g filter="url(#filter1_bd_11_332)">
<g clip-path="url(#clip2_11_332)">
<path d="M419.951 15.8438C434.972 7.17173 454.179 12.3181 462.851 27.3386L679.541 402.658C688.213 417.678 683.067 436.885 668.046 445.557L464.069 563.324C449.048 571.996 429.841 566.849 421.169 551.829L204.479 176.51C195.807 161.489 200.953 142.283 215.974 133.61L419.951 15.8438Z" fill="url(#paint2_linear_11_332)"/>
<path d="M450.789 460.389C452.702 459.285 455.148 459.94 456.253 461.854L487.844 516.572C488.949 518.485 488.294 520.931 486.38 522.036L449.793 543.16C447.88 544.264 445.434 543.609 444.329 541.695L412.738 486.977C411.633 485.064 412.288 482.618 414.202 481.513L450.789 460.389Z" fill="white" fill-opacity="0.1"/>
<path opacity="0.5" fill-rule="evenodd" clip-rule="evenodd" d="M443.424 516.805C447.344 523.595 455.961 525.959 462.67 522.085C469.379 518.212 471.64 509.567 467.72 502.777C465.963 499.734 463.263 497.58 460.214 496.478C460.784 493.286 460.269 489.871 458.512 486.828C454.592 480.038 445.975 477.674 439.266 481.547C432.556 485.421 430.296 494.065 434.216 500.855C435.973 503.898 438.673 506.052 441.722 507.155C441.152 510.346 441.667 513.762 443.424 516.805Z" fill="white"/>
<path opacity="0.5" fill-rule="evenodd" clip-rule="evenodd" d="M443.424 516.805C447.344 523.595 455.961 525.959 462.67 522.085C469.379 518.212 471.64 509.567 467.72 502.777C465.963 499.734 463.263 497.58 460.214 496.478C459.512 500.408 457.164 503.998 453.462 506.136C449.759 508.274 445.476 508.512 441.722 507.155C441.152 510.346 441.667 513.762 443.424 516.805Z" fill="white"/>
<path fill-rule="evenodd" clip-rule="evenodd" d="M441.722 507.154C445.476 508.511 449.759 508.273 453.462 506.136C457.164 503.998 459.512 500.408 460.214 496.478C456.46 495.121 452.176 495.359 448.474 497.497C444.772 499.634 442.424 503.225 441.722 507.154Z" fill="white"/>
<path d="M232.086 158.99L245.249 151.39L241.752 149.478L244.287 148.015L247.751 149.945L249.089 152.262L233.424 161.307L232.086 158.99ZM237.453 168.26L239.483 167.103L249.535 170.394C250.339 170.665 251.018 170.77 251.574 170.711C252.134 170.658 252.635 170.504 253.077 170.249C253.635 169.927 254.065 169.514 254.365 169.012C254.672 168.506 254.831 167.96 254.84 167.374C254.85 166.788 254.692 166.213 254.365 165.647C254.03 165.067 253.593 164.628 253.054 164.33C252.526 164.035 251.964 163.891 251.368 163.896C250.771 163.902 250.214 164.059 249.696 164.368L248.352 162.04C249.367 161.454 250.388 161.169 251.413 161.187C252.45 161.207 253.415 161.496 254.307 162.054C255.207 162.608 255.957 163.403 256.555 164.44C257.125 165.427 257.411 166.441 257.413 167.484C257.423 168.523 257.17 169.491 256.654 170.389C256.141 171.294 255.388 172.033 254.395 172.607C253.677 173.021 253.013 173.279 252.404 173.379C251.795 173.48 251.167 173.465 250.521 173.335C249.876 173.204 249.139 173.001 248.312 172.724L240.573 170.172L241.081 169.545L245.735 177.606L243.57 178.856L237.453 168.26ZM249.188 189.289C248.74 188.513 248.464 187.7 248.36 186.851C248.264 185.998 248.343 185.164 248.598 184.349C248.858 183.542 249.292 182.813 249.902 182.161L251.78 184.006C251.227 184.606 250.92 185.272 250.859 186.003C250.805 186.731 250.966 187.411 251.342 188.045C251.68 188.614 252.105 189.041 252.617 189.325C253.129 189.61 253.678 189.747 254.263 189.739C254.855 189.725 255.441 189.551 256.021 189.217C256.891 188.714 257.452 188.028 257.704 187.157C257.96 186.294 257.837 185.427 257.334 184.557C257.192 184.31 257.009 184.077 256.786 183.858C256.567 183.646 256.334 183.461 256.088 183.303L257.268 181.201L265.343 183.907L264.828 184.523L260.432 176.908L262.597 175.658L268.036 185.079L265.871 186.329L258.804 184.288L259.531 183.839C260.1 184.826 260.373 185.809 260.35 186.79C260.333 187.766 260.061 188.668 259.533 189.495C259.016 190.326 258.294 191.009 257.365 191.545C256.364 192.122 255.34 192.4 254.292 192.376C253.248 192.36 252.276 192.085 251.377 191.549C250.483 191.022 249.753 190.268 249.188 189.289ZM259.854 207.086L262.585 205.51L258.502 198.438L260.656 197.195L274.377 196.062L275.878 198.662L262.158 199.795L264.739 204.266L268.982 201.816L270.313 204.123L266.071 206.572L266.969 208.128L264.815 209.372L263.916 207.816L261.186 209.392L259.854 207.086ZM271.452 227.174L284.615 219.574L281.118 217.662L283.653 216.198L287.117 218.129L288.455 220.446L272.79 229.491L271.452 227.174ZM276.819 236.444L278.848 235.287L288.9 238.578C289.705 238.849 290.384 238.954 290.94 238.895C291.5 238.842 292.001 238.688 292.443 238.433C293.001 238.11 293.431 237.698 293.731 237.196C294.038 236.69 294.197 236.144 294.206 235.558C294.216 234.972 294.058 234.396 293.731 233.831C293.396 233.25 292.959 232.811 292.42 232.514C291.892 232.219 291.33 232.074 290.733 232.08C290.137 232.086 289.58 232.243 289.062 232.552L287.718 230.224C288.733 229.638 289.754 229.353 290.779 229.37C291.816 229.391 292.781 229.68 293.673 230.238C294.573 230.792 295.323 231.587 295.921 232.624C296.491 233.611 296.777 234.625 296.779 235.668C296.789 236.707 296.536 237.675 296.019 238.573C295.507 239.478 294.754 240.217 293.761 240.791C293.043 241.205 292.379 241.463 291.77 241.563C291.16 241.663 290.533 241.648 289.887 241.518C289.242 241.388 288.505 241.185 287.678 240.908L279.939 238.356L280.447 237.729L285.101 245.79L282.936 247.04L276.819 236.444ZM288.554 257.473C288.105 256.697 287.83 255.884 287.726 255.035C287.63 254.182 287.709 253.348 287.964 252.533C288.224 251.726 288.658 250.996 289.268 250.344L291.146 252.19C290.593 252.79 290.286 253.456 290.225 254.187C290.171 254.914 290.332 255.595 290.708 256.229C291.046 256.798 291.471 257.225 291.983 257.509C292.495 257.793 293.044 257.931 293.629 257.922C294.221 257.909 294.807 257.735 295.387 257.4C296.257 256.898 296.818 256.211 297.07 255.341C297.326 254.478 297.203 253.611 296.7 252.74C296.558 252.494 296.375 252.261 296.152 252.042C295.933 251.83 295.7 251.645 295.454 251.487L296.634 249.385L304.709 252.091L304.194 252.707L299.798 245.092L301.963 243.842L307.402 253.263L305.237 254.513L298.17 252.472L298.897 252.023C299.466 253.01 299.739 253.993 299.716 254.974C299.699 255.95 299.427 256.852 298.899 257.679C298.382 258.509 297.659 259.192 296.731 259.728C295.73 260.306 294.706 260.583 293.658 260.56C292.614 260.544 291.642 260.268 290.743 259.733C289.849 259.205 289.119 258.452 288.554 257.473ZM299.22 275.27L301.951 273.693L297.868 266.622L300.022 265.379L313.743 264.246L315.244 266.846L301.523 267.979L304.105 272.45L308.348 270L309.679 272.307L305.436 274.756L306.335 276.312L304.181 277.555L303.282 276L300.552 277.576L299.22 275.27ZM310.818 295.357L323.981 287.757L320.484 285.846L323.019 284.382L326.483 286.313L327.821 288.63L312.156 297.675L310.818 295.357ZM316.185 304.628L318.214 303.471L328.266 306.762C329.071 307.032 329.75 307.138 330.306 307.078C330.865 307.026 331.367 306.872 331.809 306.617C332.367 306.294 332.797 305.882 333.097 305.38C333.404 304.874 333.563 304.328 333.572 303.742C333.582 303.156 333.424 302.58 333.097 302.014C332.762 301.434 332.325 300.995 331.786 300.697C331.258 300.403 330.696 300.258 330.099 300.264C329.503 300.27 328.946 300.427 328.428 300.736L327.084 298.408C328.099 297.822 329.12 297.537 330.145 297.554C331.182 297.575 332.146 297.864 333.039 298.422C333.939 298.976 334.688 299.771 335.287 300.808C335.857 301.794 336.143 302.809 336.145 303.852C336.155 304.891 335.902 305.859 335.385 306.757C334.873 307.661 334.12 308.401 333.127 308.974C332.409 309.389 331.745 309.646 331.136 309.747C330.526 309.847 329.899 309.832 329.253 309.702C328.608 309.572 327.871 309.369 327.044 309.092L319.305 306.54L319.813 305.913L324.467 313.974L322.302 315.224L316.185 304.628ZM327.919 325.657C327.471 324.881 327.196 324.068 327.092 323.219C326.996 322.365 327.075 321.531 327.33 320.717C327.59 319.91 328.024 319.18 328.634 318.528L330.512 320.374C329.959 320.974 329.652 321.639 329.591 322.371C329.537 323.098 329.698 323.779 330.073 324.413C330.411 324.982 330.837 325.408 331.349 325.693C331.861 325.977 332.41 326.115 332.995 326.106C333.587 326.093 334.173 325.919 334.753 325.584C335.623 325.082 336.184 324.395 336.436 323.525C336.692 322.661 336.568 321.795 336.066 320.924C335.924 320.678 335.741 320.445 335.518 320.226C335.298 320.014 335.066 319.829 334.82 319.671L336 317.568L344.075 320.275L343.56 320.891L339.164 313.276L341.329 312.026L346.768 321.447L344.603 322.697L337.536 320.656L338.263 320.207C338.832 321.193 339.105 322.177 339.082 323.158C339.065 324.134 338.793 325.036 338.265 325.863C337.748 326.693 337.025 327.376 336.097 327.912C335.096 328.49 334.072 328.767 333.024 328.744C331.98 328.728 331.008 328.452 330.109 327.917C329.215 327.389 328.485 326.636 327.919 325.657ZM338.586 343.454L341.317 341.877L337.234 334.806L339.388 333.562L353.109 332.429L354.61 335.029L340.889 336.162L343.471 340.634L347.714 338.184L349.045 340.49L344.802 342.94L345.701 344.496L343.547 345.739L342.648 344.184L339.918 345.76L338.586 343.454ZM350.184 363.541L363.347 355.941L359.85 354.029L362.385 352.566L365.849 354.497L367.187 356.814L351.522 365.858L350.184 363.541ZM355.551 372.812L357.58 371.654L367.632 374.946C368.437 375.216 369.116 375.322 369.672 375.262C370.231 375.21 370.732 375.056 371.175 374.8C371.733 374.478 372.163 374.066 372.463 373.564C372.77 373.058 372.928 372.512 372.938 371.926C372.948 371.34 372.79 370.764 372.463 370.198C372.128 369.618 371.691 369.179 371.152 368.881C370.624 368.587 370.062 368.442 369.465 368.448C368.869 368.454 368.312 368.611 367.794 368.92L366.45 366.592C367.465 366.005 368.486 365.721 369.511 365.738C370.548 365.758 371.512 366.048 372.405 366.606C373.305 367.159 374.054 367.955 374.653 368.992C375.223 369.978 375.509 370.993 375.511 372.036C375.521 373.074 375.268 374.043 374.751 374.94C374.239 375.845 373.486 376.585 372.493 377.158C371.775 377.573 371.111 377.83 370.502 377.931C369.892 378.031 369.265 378.016 368.619 377.886C367.974 377.756 367.237 377.552 366.41 377.276L358.671 374.724L359.179 374.097L363.833 382.158L361.668 383.408L355.551 372.812ZM367.285 393.84C366.837 393.064 366.562 392.252 366.458 391.403C366.362 390.549 366.441 389.715 366.696 388.901C366.955 388.094 367.39 387.364 368 386.712L369.878 388.558C369.325 389.158 369.018 389.823 368.957 390.555C368.903 391.282 369.064 391.963 369.439 392.597C369.777 393.166 370.203 393.592 370.715 393.877C371.227 394.161 371.776 394.299 372.361 394.29C372.953 394.277 373.539 394.103 374.119 393.768C374.989 393.265 375.55 392.579 375.802 391.708C376.058 390.845 375.934 389.978 375.432 389.108C375.29 388.861 375.107 388.629 374.883 388.409C374.664 388.197 374.432 388.012 374.186 387.855L375.366 385.752L383.441 388.458L382.926 389.075L378.53 381.459L380.695 380.21L386.134 389.631L383.969 390.881L376.902 388.84L377.629 388.391C378.198 389.377 378.471 390.361 378.447 391.341C378.431 392.318 378.159 393.22 377.631 394.047C377.114 394.877 376.391 395.56 375.463 396.096C374.462 396.674 373.438 396.951 372.389 396.928C371.345 396.912 370.374 396.636 369.475 396.101C368.581 395.573 367.851 394.82 367.285 393.84ZM377.952 411.638L380.683 410.061L376.6 402.99L378.754 401.746L392.475 400.613L393.976 403.213L380.255 404.346L382.837 408.817L387.08 406.368L388.411 408.674L384.168 411.124L385.066 412.679L382.912 413.923L382.014 412.367L379.284 413.944L377.952 411.638Z" fill="white"/>
<path d="M271.575 138.581C270.896 137.406 270.574 136.257 270.608 135.135C270.647 134.01 271 132.962 271.664 131.99C272.332 131.025 273.273 130.191 274.486 129.491C275.699 128.791 276.891 128.393 278.061 128.297C279.235 128.207 280.316 128.428 281.305 128.959C282.299 129.488 283.135 130.34 283.813 131.515C284.488 132.684 284.806 133.831 284.767 134.956C284.736 136.084 284.387 137.131 283.719 138.096C283.051 139.062 282.11 139.895 280.897 140.596C279.684 141.296 278.492 141.694 277.322 141.79C276.151 141.885 275.068 141.666 274.07 141.132C273.082 140.601 272.25 139.75 271.575 138.581ZM273.198 137.643C273.668 138.482 274.249 139.067 274.941 139.4C275.642 139.735 276.41 139.846 277.245 139.734C278.085 139.619 278.954 139.303 279.851 138.784C280.749 138.266 281.452 137.675 281.961 137.012C282.475 136.345 282.76 135.626 282.815 134.854C282.873 134.088 282.665 133.287 282.19 132.452C281.72 131.613 281.137 131.025 280.442 130.687C279.749 130.354 278.983 130.246 278.143 130.361C277.303 130.476 276.432 130.79 275.532 131.303C274.631 131.815 273.924 132.405 273.409 133.072C272.9 133.736 272.618 134.453 272.563 135.225C272.512 136.002 272.723 136.808 273.198 137.643ZM276.528 146.594L288.277 139.811L289.261 141.516L279.119 147.371L282.191 152.691L280.583 153.619L276.528 146.594ZM281.948 155.983L293.698 149.2L294.682 150.905L282.933 157.689L281.948 155.983ZM286.411 163.712L295.955 153.111L296.978 154.881L288.83 163.926L300.76 161.433L301.782 163.203L287.829 166.168L286.411 163.712ZM291.309 172.196L303.058 165.413L304.043 167.118L292.294 173.902L291.309 172.196ZM293.708 176.352L307.662 173.387L309.08 175.843L299.535 186.445L298.513 184.674L307.204 174.968L307.458 175.408L294.73 178.122L293.708 176.352ZM297.505 176.803L299.104 175.88L302.646 182.016L301.047 182.939L297.505 176.803ZM303.209 192.807L314.958 186.024L317.699 190.772C317.765 190.887 317.842 191.031 317.928 191.206C318.02 191.378 318.096 191.548 318.157 191.716C318.43 192.428 318.522 193.101 318.43 193.734C318.342 194.372 318.099 194.951 317.703 195.47C317.306 195.989 316.792 196.431 316.161 196.795C315.226 197.335 314.28 197.562 313.324 197.476C312.373 197.387 311.537 196.912 310.815 196.052L310.333 195.406L308.411 192.077L304.193 194.512L303.209 192.807ZM307.175 199.677L310.618 194.599L312.053 196.067L308.301 201.627L307.175 199.677ZM310.027 191.144L311.746 194.122C311.809 194.231 311.884 194.348 311.97 194.472C312.059 194.602 312.152 194.718 312.248 194.822C312.531 195.123 312.842 195.317 313.182 195.404C313.528 195.487 313.871 195.492 314.213 195.418C314.555 195.344 314.87 195.224 315.158 195.057C315.446 194.891 315.705 194.68 315.935 194.424C316.17 194.165 316.335 193.867 316.43 193.529C316.53 193.188 316.521 192.82 316.401 192.425C316.365 192.286 316.313 192.146 316.245 192.003C316.181 191.867 316.117 191.744 316.054 191.635L314.335 188.657L310.027 191.144ZM309.807 204.236L321.556 197.453L322.541 199.158L317.474 202.083L320.866 207.958L325.933 205.033L326.922 206.746L315.173 213.529L314.183 211.816L319.258 208.886L315.867 203.011L310.792 205.941L309.807 204.236ZM318.602 219.469L323.456 216.666L328.057 208.712L329.206 210.703L325.914 216.4L332.494 216.398L333.644 218.388L324.455 218.395L319.6 221.198L318.602 219.469ZM323.023 227.126L334.772 220.343L339.106 227.849L337.498 228.777L334.149 222.976L330.853 224.879L333.637 229.701L332.03 230.629L329.246 225.807L325.615 227.904L328.964 233.705L327.357 234.633L323.023 227.126Z" fill="white"/>
<path d="M393.845 350.359C393.383 349.559 393.149 348.752 393.142 347.936C393.141 347.117 393.346 346.354 393.756 345.645C394.17 344.942 394.776 344.36 395.576 343.898L399.623 341.562C400.423 341.1 401.23 340.866 402.046 340.859C402.865 340.858 403.626 341.064 404.328 341.478C405.037 341.888 405.622 342.493 406.084 343.293C406.545 344.093 406.777 344.902 406.778 345.721C406.785 346.536 406.581 347.296 406.168 347.999C405.757 348.707 405.152 349.292 404.352 349.754L400.306 352.09C399.506 352.552 398.697 352.783 397.878 352.785C397.062 352.791 396.3 352.589 395.592 352.179C394.889 351.765 394.307 351.159 393.845 350.359ZM395.477 349.417C395.728 349.852 396.059 350.187 396.47 350.421C396.889 350.658 397.337 350.78 397.813 350.788C398.295 350.793 398.756 350.668 399.196 350.414L403.472 347.945C403.907 347.694 404.24 347.36 404.471 346.944C404.707 346.524 404.825 346.076 404.825 345.597C404.833 345.121 404.711 344.666 404.46 344.231C404.209 343.795 403.873 343.46 403.454 343.223C403.043 342.989 402.597 342.869 402.116 342.864C401.639 342.856 401.184 342.978 400.749 343.229L396.473 345.698C396.033 345.952 395.694 346.289 395.458 346.708C395.227 347.125 395.107 347.571 395.099 348.047C395.1 348.525 395.226 348.982 395.477 349.417ZM400.328 361.588C399.888 360.826 399.672 360.037 399.679 359.221C399.692 358.401 399.91 357.63 400.334 356.906C400.761 356.188 401.377 355.597 402.182 355.132L405.927 352.97C406.781 352.477 407.633 352.22 408.485 352.2C409.339 352.186 410.128 352.39 410.852 352.814C411.578 353.243 412.18 353.871 412.657 354.698C413.015 355.318 413.234 355.967 413.314 356.646C413.395 357.325 413.318 357.997 413.085 358.661L411.198 358.086C411.357 357.697 411.424 357.285 411.398 356.85C411.38 356.418 411.262 356.011 411.042 355.63C410.759 355.141 410.394 354.779 409.947 354.544C409.505 354.306 409.035 354.189 408.537 354.194C408.042 354.204 407.58 354.333 407.15 354.581L404.996 355.824L405.178 355.273C405.814 355.356 406.404 355.574 406.948 355.927C407.493 356.28 407.93 356.742 408.26 357.313C408.681 358.042 408.885 358.791 408.872 359.56C408.867 360.331 408.668 361.048 408.275 361.71C407.884 362.378 407.325 362.922 406.596 363.343C405.861 363.767 405.088 363.967 404.276 363.942C403.473 363.92 402.717 363.704 402.009 363.293C401.309 362.885 400.749 362.317 400.328 361.588ZM401.968 360.641C402.213 361.065 402.539 361.392 402.947 361.62C403.354 361.849 403.792 361.966 404.259 361.972C404.727 361.978 405.173 361.858 405.597 361.613C406.021 361.368 406.348 361.042 406.577 360.634C406.809 360.232 406.927 359.797 406.933 359.33C406.939 358.862 406.819 358.416 406.574 357.992C406.329 357.568 406.001 357.239 405.591 357.004C405.183 356.776 404.745 356.658 404.278 356.653C403.81 356.647 403.364 356.767 402.94 357.012C402.521 357.253 402.198 357.578 401.969 357.986C401.74 358.393 401.62 358.833 401.609 359.303C401.603 359.771 401.723 360.217 401.968 360.641ZM418.027 364.545L419.021 366.267L405.463 369.917L404.469 368.195L418.027 364.545ZM408.792 375.664L410.314 374.796L417.853 377.264C418.456 377.467 418.966 377.546 419.383 377.502C419.803 377.462 420.178 377.347 420.51 377.156C420.929 376.914 421.251 376.605 421.476 376.228C421.706 375.848 421.825 375.439 421.833 374.999C421.84 374.56 421.721 374.128 421.476 373.704C421.225 373.269 420.897 372.939 420.493 372.716C420.097 372.495 419.675 372.387 419.228 372.391C418.781 372.395 418.363 372.513 417.975 372.745L416.966 370.999C417.728 370.559 418.493 370.346 419.262 370.359C420.04 370.374 420.763 370.591 421.433 371.009C422.108 371.425 422.67 372.021 423.119 372.799C423.546 373.539 423.761 374.3 423.762 375.082C423.77 375.861 423.58 376.587 423.193 377.26C422.808 377.939 422.244 378.494 421.498 378.924C420.96 379.235 420.462 379.428 420.005 379.503C419.548 379.578 419.078 379.567 418.593 379.47C418.109 379.372 417.557 379.22 416.937 379.012L411.132 377.098L411.513 376.628L415.004 382.674L413.38 383.611L408.792 375.664ZM417.662 391.047L419.71 389.864L416.648 384.561L418.264 383.628L428.554 382.778L429.68 384.728L419.39 385.578L421.326 388.932L424.508 387.094L425.506 388.824L422.324 390.661L422.998 391.828L421.383 392.761L420.709 391.594L418.661 392.776L417.662 391.047Z" fill="white"/>
<path d="M437.353 57.4405L439.008 60.307L428.67 66.2756C427.537 66.9299 426.385 67.2375 425.216 67.1984C424.049 67.1645 422.946 66.8057 421.905 66.1221C420.87 65.4354 419.981 64.4482 419.237 63.1605C418.491 61.8676 418.079 60.6012 418.002 59.3614C417.93 58.1186 418.171 56.9837 418.725 55.9565C419.279 54.9293 420.123 54.0886 421.256 53.4343L431.594 47.4657L433.249 50.3322L423.15 56.1625C422.491 56.5432 421.987 57.0264 421.638 57.6123C421.293 58.2033 421.126 58.8488 421.139 59.5489C421.157 60.2459 421.376 60.9576 421.795 61.6839C422.214 62.4102 422.721 62.9553 423.316 63.3194C423.919 63.6855 424.561 63.8642 425.243 63.8552C425.924 63.8463 426.595 63.6515 427.254 63.2708L437.353 57.4405ZM433.48 71.2171L426.526 75.2319L424.911 72.4349L436.779 65.583L438.323 68.2564L436.306 69.4206L436.386 69.5597C437.208 69.4491 437.988 69.5795 438.724 69.951C439.464 70.3277 440.089 70.959 440.601 71.8449C441.073 72.6639 441.31 73.4785 441.311 74.2885C441.314 75.1037 441.081 75.8705 440.61 76.5889C440.141 77.3125 439.432 77.9454 438.481 78.4874L430.925 82.8501L429.31 80.0532L436.434 75.9402C437.227 75.4823 437.729 74.9179 437.939 74.2471C438.152 73.5814 438.05 72.888 437.634 72.1669C437.352 71.6775 436.992 71.3047 436.556 71.0485C436.127 70.7944 435.65 70.6752 435.123 70.6908C434.6 70.7116 434.052 70.887 433.48 71.2171ZM447.856 84.7677L445.692 86.0168L441.753 79.1944L443.917 77.9453L447.856 84.7677ZM447.732 77.9881L449.347 80.785L438.206 87.2176C437.83 87.4347 437.574 87.6579 437.438 87.8872C437.311 88.1187 437.266 88.3505 437.304 88.5827C437.342 88.815 437.428 89.047 437.562 89.2788C437.663 89.4539 437.768 89.6061 437.877 89.7355C437.989 89.87 438.078 89.9699 438.143 90.0353L436.229 91.7691C436.091 91.6494 435.911 91.4684 435.688 91.2259C435.469 90.9886 435.24 90.6746 435 90.2839C434.575 89.5953 434.316 88.9033 434.224 88.208C434.137 87.5098 434.245 86.8531 434.55 86.2379C434.857 85.6279 435.383 85.1114 436.127 84.6883L447.732 77.9881ZM437.338 93.9588L449.206 87.1069L450.821 89.9039L438.953 96.7558L437.338 93.9588ZM451.702 87.5407C451.447 87.0977 451.373 86.6318 451.482 86.1429C451.597 85.651 451.863 85.2847 452.28 85.0438C452.702 84.7999 453.152 84.7529 453.63 84.9028C454.114 85.0496 454.483 85.3446 454.739 85.7875C454.998 86.2357 455.068 86.7031 454.951 87.1898C454.842 87.6787 454.576 88.045 454.153 88.2889C453.736 88.5298 453.286 88.5768 452.803 88.4299C452.328 88.2852 451.961 87.9888 451.702 87.5407ZM455.903 98.7062L453.74 99.9553L449.801 93.1328L451.964 91.8838L455.903 98.7062ZM455.78 91.9266L457.395 94.7235L446.253 101.156C445.877 101.373 445.621 101.596 445.486 101.826C445.359 102.057 445.314 102.289 445.352 102.521C445.39 102.753 445.476 102.985 445.609 103.217C445.71 103.392 445.816 103.545 445.925 103.674C446.037 103.808 446.125 103.908 446.19 103.974L444.276 105.708C444.138 105.588 443.958 105.407 443.736 105.164C443.516 104.927 443.287 104.613 443.048 104.222C442.623 103.534 442.364 102.842 442.271 102.147C442.184 101.448 442.293 100.792 442.597 100.176C442.904 99.5664 443.43 99.0499 444.175 98.6268L455.78 91.9266ZM462.971 101.813L447.148 110.949L445.533 108.152L461.357 99.0164L462.971 101.813ZM451.61 119.213C450.923 118.023 450.577 116.853 450.572 115.702C450.575 114.553 450.898 113.484 451.542 112.494C452.191 111.501 453.137 110.646 454.378 109.93C455.599 109.225 456.804 108.838 457.994 108.769C459.192 108.703 460.29 108.941 461.29 109.483C462.295 110.022 463.125 110.858 463.779 111.991C464.201 112.723 464.482 113.482 464.619 114.267C464.765 115.055 464.738 115.84 464.537 116.623C464.339 117.41 463.945 118.166 463.354 118.892C462.768 119.615 461.955 120.276 460.915 120.877L460.057 121.372L454.441 111.645L456.326 110.556L460.395 117.603C460.927 117.288 461.337 116.897 461.623 116.43C461.915 115.959 462.064 115.451 462.071 114.904C462.082 114.362 461.932 113.824 461.623 113.288C461.293 112.716 460.864 112.294 460.336 112.022C459.813 111.747 459.257 111.618 458.669 111.635C458.09 111.653 457.533 111.813 457 112.115L455.354 113.065C454.664 113.463 454.144 113.931 453.795 114.469C453.452 115.004 453.279 115.574 453.278 116.179C453.283 116.781 453.46 117.386 453.811 117.994C454.046 118.401 454.315 118.736 454.619 119.001C454.928 119.262 455.265 119.448 455.632 119.559C455.998 119.671 456.384 119.691 456.791 119.622L458.005 122.403C457.219 122.636 456.435 122.67 455.653 122.504C454.878 122.34 454.142 121.982 453.446 121.429C452.754 120.874 452.142 120.135 451.61 119.213ZM458.589 131.247C458.05 130.315 457.808 129.342 457.862 128.329C457.916 127.316 458.275 126.332 458.94 125.378C459.605 124.424 460.589 123.571 461.892 122.819C463.211 122.058 464.448 121.632 465.604 121.541C466.769 121.452 467.797 121.645 468.689 122.119C469.586 122.59 470.298 123.282 470.824 124.193C471.225 124.889 471.437 125.529 471.459 126.114C471.486 126.696 471.41 127.213 471.232 127.666C471.059 128.116 470.87 128.497 470.665 128.808L470.732 128.923L476.651 125.506L478.27 128.311L462.446 137.447L460.858 134.696L462.728 133.617L462.63 133.447C462.258 133.469 461.831 133.438 461.349 133.352C460.872 133.263 460.391 133.06 459.905 132.743C459.42 132.426 458.981 131.927 458.589 131.247ZM461.334 130.703C461.676 131.295 462.127 131.708 462.687 131.941C463.253 132.17 463.886 132.227 464.588 132.11C465.29 131.994 466.025 131.714 466.792 131.27C467.56 130.827 468.164 130.334 468.606 129.791C469.05 129.252 469.309 128.684 469.383 128.085C469.459 127.492 469.323 126.894 468.975 126.291C468.615 125.668 468.153 125.241 467.587 125.011C467.022 124.781 466.393 124.726 465.699 124.845C465.005 124.964 464.29 125.236 463.553 125.661C462.812 126.089 462.211 126.577 461.751 127.124C461.299 127.674 461.026 128.254 460.932 128.864C460.846 129.477 460.98 130.09 461.334 130.703ZM464.992 142.249C464.721 141.78 464.654 141.283 464.79 140.758C464.927 140.233 465.233 139.836 465.71 139.567C466.171 139.295 466.663 139.23 467.186 139.375C467.709 139.519 468.105 139.826 468.376 140.295C468.638 140.748 468.7 141.237 468.564 141.762C468.431 142.293 468.134 142.694 467.673 142.967C467.356 143.143 467.022 143.226 466.673 143.215C466.326 143.209 466.001 143.122 465.698 142.954C465.402 142.788 465.167 142.553 464.992 142.249Z" fill="white"/>
<g clip-path="url(#clip3_11_332)">
<path d="M646.687 412.6C643.734 417.715 639.487 421.963 634.372 424.916C629.256 427.869 623.454 429.424 617.548 429.424M639.781 408.04C637.477 412.029 634.164 415.343 630.174 417.646C626.185 419.95 621.659 421.162 617.052 421.162M633.305 403.62C631.613 406.52 629.187 408.933 626.271 410.616C623.356 412.3 620.053 413.194 616.695 413.209M626.596 399.334C625.622 401.282 624.123 402.882 622.269 403.953C620.414 405.024 618.279 405.522 616.105 405.391" stroke="white" stroke-width="4.03771" stroke-linecap="round"/>
</g>
</g>
<path d="M420.344 16.5238C434.989 8.06846 453.715 13.0862 462.171 27.7312L678.861 403.05C687.317 417.695 682.299 436.422 667.654 444.877L463.676 562.644C449.031 571.099 430.305 566.081 421.849 551.436L205.159 176.117C196.703 161.472 201.721 142.746 216.366 134.29L420.344 16.5238Z" stroke="url(#paint3_linear_11_332)" stroke-opacity="0.3" stroke-width="1.57022"/>
</g>
<defs>
<filter id="filter0_d_11_332" x="-11.4941" y="188.43" width="629.131" height="556.714" filterUnits="userSpaceOnUse" color-interpolation-filters="sRGB">
<feFlood flood-opacity="0" result="BackgroundImageFix"/>
<feColorMatrix in="SourceAlpha" type="matrix" values="0 0 0 0 0 0 0 0 0 0 0 0 0 0 0 0 0 0 127 0" result="hardAlpha"/>
<feOffset dx="12.5618" dy="15.7022"/>
<feGaussianBlur stdDeviation="12.5618"/>
<feColorMatrix type="matrix" values="0 0 0 0 0 0 0 0 0 0 0 0 0 0 0 0 0 0 0.05 0"/>
<feBlend mode="normal" in2="BackgroundImageFix" result="effect1_dropShadow_11_332"/>
<feBlend mode="normal" in="SourceGraphic" in2="effect1_dropShadow_11_332" result="shape"/>
</filter>
<filter id="filter1_bd_11_332" x="169.934" y="-18.7011" width="562.995" height="638.553" filterUnits="userSpaceOnUse" color-interpolation-filters="sRGB">
<feFlood flood-opacity="0" result="BackgroundImageFix"/>
<feGaussianBlur in="BackgroundImageFix" stdDeviation="9.42133"/>
<feComposite in2="SourceAlpha" operator="in" result="effect1_backgroundBlur_11_332"/>
<feColorMatrix in="SourceAlpha" type="matrix" values="0 0 0 0 0 0 0 0 0 0 0 0 0 0 0 0 0 0 127 0" result="hardAlpha"/>
<feOffset dx="12.5618" dy="15.7022"/>
<feGaussianBlur stdDeviation="12.5618"/>
<feColorMatrix type="matrix" values="0 0 0 0 0 0 0 0 0 0 0 0 0 0 0 0 0 0 0.05 0"/>
<feBlend mode="normal" in2="effect1_backgroundBlur_11_332" result="effect2_dropShadow_11_332"/>
<feBlend mode="normal" in="SourceGraphic" in2="effect2_dropShadow_11_332" result="shape"/>
</filter>
<linearGradient id="paint0_linear_11_332" x1="1.06194" y1="456.218" x2="448.389" y2="208.434" gradientUnits="userSpaceOnUse">
<stop stop-color="#42307D"/>
<stop offset="1" stop-color="#7F56D9"/>
</linearGradient>
<linearGradient id="paint1_linear_11_332" x1="143.94" y1="208.762" x2="411.923" y2="714.315" gradientUnits="userSpaceOnUse">
<stop stop-color="white"/>
<stop offset="1" stop-color="white" stop-opacity="0.2"/>
</linearGradient>
<linearGradient id="paint2_linear_11_332" x1="459.543" y1="21.61" x2="403.972" y2="643.965" gradientUnits="userSpaceOnUse">
<stop stop-color="white" stop-opacity="0.51"/>
<stop offset="1" stop-color="white" stop-opacity="0"/>
</linearGradient>
<linearGradient id="paint3_linear_11_332" x1="436.238" y1="6.44057" x2="415.542" y2="578.254" gradientUnits="userSpaceOnUse">
<stop stop-color="white"/>
<stop offset="1" stop-color="white" stop-opacity="0.2"/>
</linearGradient>
<clipPath id="clip0_11_332">
<path d="M134.537 225.049C143.209 210.028 162.415 204.882 177.436 213.554L552.755 430.244C567.775 438.916 572.922 458.123 564.25 473.144L446.483 677.121C437.811 692.142 418.604 697.288 403.584 688.616L28.2647 471.926C13.2442 463.254 8.09784 444.047 16.7699 429.026L134.537 225.049Z" fill="white"/>
</clipPath>
<clipPath id="clip1_11_332">
<rect width="31.4044" height="37.6853" fill="white" transform="translate(509.691 441.644) rotate(30)"/>
</clipPath>
<clipPath id="clip2_11_332">
<path d="M419.951 15.8438C434.972 7.17173 454.179 12.3181 462.851 27.3386L679.541 402.658C688.213 417.678 683.067 436.885 668.046 445.557L464.069 563.324C449.048 571.996 429.841 566.849 421.169 551.829L204.479 176.51C195.807 161.489 200.953 142.283 215.974 133.61L419.951 15.8438Z" fill="white"/>
</clipPath>
<clipPath id="clip3_11_332">
<rect width="31.4044" height="37.6853" fill="white" transform="translate(636.547 390.998) rotate(60)"/>
</clipPath>
</defs>
</svg>
