<svg width="509" height="141" viewBox="0 0 509 141" fill="none" xmlns="http://www.w3.org/2000/svg">
<path d="M141.92 78.411C141.92 58.591 157.2 43.791 177.99 43.791C198.78 43.791 213.86 58.491 213.86 78.411C213.86 98.331 198.58 113.031 177.99 113.031C157.4 113.031 141.92 98.241 141.92 78.411ZM204.19 78.411C204.19 63.421 192.97 52.401 177.99 52.401C163.01 52.401 151.59 63.421 151.59 78.411C151.59 93.401 162.81 104.421 177.99 104.421C193.17 104.421 204.19 93.401 204.19 78.411Z" fill="#00244D"/>
<path d="M277.97 69.1208C277.97 84.2008 266.66 93.5808 248.57 93.5808H234.94V112.241H219.27V44.5508H248.57C266.65 44.5508 277.97 53.9308 277.97 69.1108V69.1208ZM262.11 69.1208C262.11 61.6708 257.28 57.3208 247.7 57.3208H234.94V80.8208H247.7C257.27 80.8208 262.11 76.4708 262.11 69.1208Z" fill="#00244D"/>
<path d="M277.48 105.58L282.8 93.7804C288.51 97.9404 297.01 100.84 305.14 100.84C314.42 100.84 318.19 97.7504 318.19 93.5904C318.19 80.9204 278.84 89.6304 278.84 64.4804C278.84 52.9704 288.12 43.4004 307.36 43.4004C315.87 43.4004 324.57 45.4304 330.86 49.4004L326.03 61.2904C319.74 57.7104 313.27 55.9704 307.27 55.9704C297.99 55.9704 294.41 59.4504 294.41 63.7104C294.41 76.1804 333.77 67.5804 333.77 92.4304C333.77 103.74 324.39 113.41 305.05 113.41C294.32 113.41 283.49 110.22 277.49 105.58H277.48Z" fill="#00244D"/>
<path d="M337.23 44.5605H352.9V112.251H337.23V44.5605Z" fill="#00244D"/>
<path d="M358.31 78.411C358.31 58.391 373.59 43.791 394.18 43.791C404.62 43.791 413.71 47.371 419.9 54.331L413.61 60.421C408.39 54.911 402.01 52.391 394.56 52.391C379.28 52.391 367.97 63.411 367.97 78.401C367.97 93.391 379.28 104.411 394.56 104.411C402.01 104.411 408.39 101.801 413.61 96.291L419.9 102.381C413.71 109.341 404.62 113.021 394.08 113.021C373.58 113.021 358.3 98.421 358.3 78.401L358.31 78.411Z" fill="#00244D"/>
<path d="M419.51 78.411C419.51 58.591 434.79 43.791 455.58 43.791C476.37 43.791 491.45 58.491 491.45 78.411C491.45 98.331 476.17 113.031 455.58 113.031C434.99 113.031 419.51 98.241 419.51 78.411ZM481.78 78.411C481.78 63.421 470.56 52.401 455.58 52.401C440.6 52.401 429.18 63.421 429.18 78.411C429.18 93.401 440.4 104.421 455.58 104.421C470.76 104.421 481.78 93.401 481.78 78.411Z" fill="#00244D"/>
<path d="M58.4601 22.1806C73.0101 25.2806 70.2301 46.8806 55.8101 46.5006C37.6701 46.0206 41.4901 18.5706 58.4601 22.1806Z" fill="#00244D"/>
<path d="M117.4 16.8904C131.83 20.2604 127.07 42.0804 113.47 39.8304C96.8501 37.0804 102.24 13.3504 117.4 16.8904Z" fill="#00244D"/>
<path d="M30.9201 117.56C43.9001 121.04 56.9001 114.61 65.1301 104.6C73.7901 94.0797 78.2201 81.0297 85.6601 69.7397C89.6001 63.7597 94.6001 57.9397 101.08 54.6297C106.19 52.0197 116.48 51.1397 117.04 59.2597C117.52 66.1397 109.96 70.8697 104.69 73.5397C98.7501 76.5397 91.1101 78.4097 85.5001 73.7797C77.3701 67.0697 75.2001 55.5897 64.8501 51.0597C53.0701 45.8997 40.0501 53.3897 35.4901 64.6197C25.2601 89.7697 51.2701 117.29 75.1701 120.56C89.2301 122.48 104.79 116.42 112.34 104.01C119.69 91.9297 117 77.0297 111.5 64.8497C108.85 58.9897 100.23 64.0697 102.87 69.8997C107.54 80.2397 109.47 93.6997 100.87 102.58C91.7801 111.97 77.4701 113.07 66.0901 107.48C55.0901 102.08 44.6401 90.6597 43.4201 78.0097C42.8701 72.3197 44.5301 65.9097 49.1401 62.1897C54.2701 58.0597 60.8401 58.7897 65.2301 63.4197C71.9401 70.4897 74.8501 80.4897 84.3701 84.7097C95.5601 89.6697 109.05 84.1197 117.9 76.8797C126.34 69.9797 131.04 56.7697 122.33 48.0597C113.09 38.8197 99.2201 42.7897 90.1501 49.9097C78.9301 58.7197 72.8701 71.6997 66.4101 84.0397C60.1501 96.0097 49.5401 112.19 33.5801 107.91C27.3601 106.24 24.7001 115.89 30.9201 117.55V117.56Z" fill="#00244D"/>
</svg>
