<svg width="500" height="144" viewBox="0 0 500 144" fill="none" xmlns="http://www.w3.org/2000/svg">
<path d="M128.92 79.411C128.92 59.591 144.2 44.791 164.99 44.791C185.78 44.791 200.86 59.491 200.86 79.411C200.86 99.331 185.58 114.031 164.99 114.031C144.4 114.031 128.92 99.241 128.92 79.411ZM191.19 79.411C191.19 64.421 179.97 53.401 164.99 53.401C150.01 53.401 138.59 64.421 138.59 79.411C138.59 94.401 149.81 105.421 164.99 105.421C180.17 105.421 191.19 94.401 191.19 79.411Z" fill="white"/>
<path d="M264.97 70.1208C264.97 85.2008 253.66 94.5808 235.57 94.5808H221.94V113.241H206.27V45.5508H235.57C253.65 45.5508 264.97 54.9308 264.97 70.1108V70.1208ZM249.11 70.1208C249.11 62.6708 244.28 58.3208 234.7 58.3208H221.94V81.8208H234.7C244.27 81.8208 249.11 77.4708 249.11 70.1208Z" fill="white"/>
<path d="M264.48 106.58L269.8 94.7804C275.51 98.9404 284.01 101.84 292.14 101.84C301.42 101.84 305.19 98.7504 305.19 94.5904C305.19 81.9204 265.84 90.6304 265.84 65.4804C265.84 53.9704 275.12 44.4004 294.36 44.4004C302.87 44.4004 311.57 46.4304 317.86 50.4004L313.03 62.2904C306.74 58.7104 300.27 56.9704 294.27 56.9704C284.99 56.9704 281.41 60.4504 281.41 64.7104C281.41 77.1804 320.77 68.5804 320.77 93.4304C320.77 104.74 311.39 114.41 292.05 114.41C281.32 114.41 270.49 111.22 264.49 106.58H264.48Z" fill="white"/>
<path d="M324.23 45.5605H339.9V113.251H324.23V45.5605Z" fill="white"/>
<path d="M345.31 79.411C345.31 59.391 360.59 44.791 381.18 44.791C391.62 44.791 400.71 48.371 406.9 55.331L400.61 61.421C395.39 55.911 389.01 53.391 381.56 53.391C366.28 53.391 354.97 64.411 354.97 79.401C354.97 94.391 366.28 105.411 381.56 105.411C389.01 105.411 395.39 102.801 400.61 97.291L406.9 103.381C400.71 110.341 391.62 114.021 381.08 114.021C360.58 114.021 345.3 99.421 345.3 79.401L345.31 79.411Z" fill="white"/>
<path d="M406.51 79.411C406.51 59.591 421.79 44.791 442.58 44.791C463.37 44.791 478.45 59.491 478.45 79.411C478.45 99.331 463.17 114.031 442.58 114.031C421.99 114.031 406.51 99.241 406.51 79.411ZM468.78 79.411C468.78 64.421 457.56 53.401 442.58 53.401C427.6 53.401 416.18 64.421 416.18 79.411C416.18 94.401 427.4 105.421 442.58 105.421C457.76 105.421 468.78 94.401 468.78 79.411Z" fill="white"/>
<path d="M45.4601 23.1806C60.0101 26.2806 57.2301 47.8806 42.8101 47.5006C24.6701 47.0206 28.4901 19.5706 45.4601 23.1806Z" fill="white"/>
<path d="M104.4 17.8904C118.83 21.2604 114.07 43.0804 100.47 40.8304C83.8501 38.0804 89.2401 14.3504 104.4 17.8904Z" fill="white"/>
<path d="M17.9201 118.56C30.9001 122.04 43.9001 115.61 52.1301 105.6C60.7901 95.0797 65.2201 82.0297 72.6601 70.7397C76.6001 64.7597 81.6001 58.9397 88.0801 55.6297C93.1901 53.0197 103.48 52.1397 104.04 60.2597C104.52 67.1397 96.9601 71.8697 91.6901 74.5397C85.7501 77.5397 78.1101 79.4097 72.5001 74.7797C64.3701 68.0697 62.2001 56.5897 51.8501 52.0597C40.0701 46.8997 27.0501 54.3897 22.4901 65.6197C12.2601 90.7697 38.2701 118.29 62.1701 121.56C76.2301 123.48 91.7901 117.42 99.3401 105.01C106.69 92.9297 104 78.0297 98.5001 65.8497C95.8501 59.9897 87.2301 65.0697 89.8701 70.8997C94.5401 81.2397 96.4701 94.6997 87.8701 103.58C78.7801 112.97 64.4701 114.07 53.0901 108.48C42.0901 103.08 31.6401 91.6597 30.4201 79.0097C29.8701 73.3197 31.5301 66.9097 36.1401 63.1897C41.2701 59.0597 47.8401 59.7897 52.2301 64.4197C58.9401 71.4897 61.8501 81.4897 71.3701 85.7097C82.5601 90.6697 96.0501 85.1197 104.9 77.8797C113.34 70.9797 118.04 57.7697 109.33 49.0597C100.09 39.8197 86.2201 43.7897 77.1501 50.9097C65.9301 59.7197 59.8701 72.6997 53.4101 85.0397C47.1501 97.0097 36.5401 113.19 20.5801 108.91C14.3601 107.24 11.7001 116.89 17.9201 118.55V118.56Z" fill="white"/>
</svg>
