<svg width="481" height="139" viewBox="0 0 481 139" fill="none" xmlns="http://www.w3.org/2000/svg">
<path d="M121.92 83.41C121.92 63.59 137.2 48.79 157.99 48.79C178.78 48.79 193.86 63.49 193.86 83.41C193.86 103.33 178.58 118.03 157.99 118.03C137.4 118.03 121.92 103.24 121.92 83.41ZM184.19 83.41C184.19 68.42 172.97 57.4 157.99 57.4C143.01 57.4 131.59 68.42 131.59 83.41C131.59 98.4 142.81 109.42 157.99 109.42C173.17 109.42 184.19 98.4 184.19 83.41Z" fill="#BA9E83"/>
<path d="M257.97 74.12C257.97 89.2 246.66 98.58 228.57 98.58H214.94V117.24H199.27V49.55H228.57C246.65 49.55 257.97 58.93 257.97 74.11V74.12ZM242.11 74.12C242.11 66.67 237.28 62.3201 227.7 62.3201H214.94V85.8201H227.7C237.27 85.8201 242.11 81.47 242.11 74.12Z" fill="#BA9E83"/>
<path d="M257.48 110.58L262.8 98.78C268.51 102.94 277.01 105.84 285.14 105.84C294.42 105.84 298.19 102.75 298.19 98.59C298.19 85.92 258.84 94.63 258.84 69.48C258.84 57.97 268.12 48.4 287.36 48.4C295.87 48.4 304.57 50.43 310.86 54.4L306.03 66.29C299.74 62.71 293.27 60.97 287.27 60.97C277.99 60.97 274.41 64.45 274.41 68.71C274.41 81.18 313.77 72.58 313.77 97.43C313.77 108.74 304.39 118.41 285.05 118.41C274.32 118.41 263.49 115.22 257.49 110.58H257.48Z" fill="#BA9E83"/>
<path d="M317.23 49.5601H332.9V117.25H317.23V49.5601Z" fill="#BA9E83"/>
<path d="M338.31 83.41C338.31 63.39 353.59 48.79 374.18 48.79C384.62 48.79 393.71 52.37 399.9 59.33L393.61 65.42C388.39 59.91 382.01 57.39 374.56 57.39C359.28 57.39 347.97 68.41 347.97 83.4C347.97 98.39 359.28 109.41 374.56 109.41C382.01 109.41 388.39 106.8 393.61 101.29L399.9 107.38C393.71 114.34 384.62 118.02 374.08 118.02C353.58 118.02 338.3 103.42 338.3 83.4L338.31 83.41Z" fill="#BA9E83"/>
<path d="M399.51 83.41C399.51 63.59 414.79 48.79 435.58 48.79C456.37 48.79 471.45 63.49 471.45 83.41C471.45 103.33 456.17 118.03 435.58 118.03C414.99 118.03 399.51 103.24 399.51 83.41ZM461.78 83.41C461.78 68.42 450.56 57.4 435.58 57.4C420.6 57.4 409.18 68.42 409.18 83.41C409.18 98.4 420.4 109.42 435.58 109.42C450.76 109.42 461.78 98.4 461.78 83.41Z" fill="#BA9E83"/>
<path d="M38.4601 27.18C53.0101 30.28 50.2301 51.88 35.8101 51.5C17.6701 51.02 21.4901 23.57 38.4601 27.18Z" fill="#BA9E83"/>
<path d="M97.4002 21.89C111.83 25.26 107.07 47.08 93.4702 44.83C76.8502 42.08 82.2402 18.35 97.4002 21.89Z" fill="#BA9E83"/>
<path d="M10.9201 122.56C23.9001 126.04 36.9001 119.61 45.1301 109.6C53.7901 99.08 58.2201 86.03 65.6601 74.74C69.6001 68.76 74.6001 62.94 81.0801 59.63C86.1901 57.02 96.4801 56.14 97.0401 64.26C97.5201 71.14 89.9601 75.87 84.6901 78.54C78.7501 81.54 71.1101 83.41 65.5001 78.78C57.3701 72.07 55.2001 60.59 44.8501 56.06C33.0701 50.9 20.0501 58.39 15.4901 69.62C5.26013 94.77 31.2701 122.29 55.1701 125.56C69.2301 127.48 84.7901 121.42 92.3401 109.01C99.8901 96.6 97.0001 82.03 91.5001 69.85C88.8501 63.99 80.2301 69.07 82.8701 74.9C87.5401 85.24 89.4701 98.7 80.8701 107.58C71.7801 116.97 57.4701 118.07 46.0901 112.48C35.0901 107.08 24.6401 95.66 23.4201 83.01C22.8701 77.32 24.5301 70.91 29.1401 67.19C34.2701 63.06 40.8401 63.79 45.2301 68.42C51.9401 75.49 54.8501 85.49 64.3701 89.71C75.5601 94.67 89.0501 89.12 97.9001 81.88C106.75 74.64 111.04 61.77 102.33 53.06C93.0901 43.82 79.2201 47.79 70.1501 54.91C58.9301 63.72 52.8701 76.7 46.4101 89.04C40.1501 101.01 29.5401 117.19 13.5801 112.91C7.36013 111.24 4.70013 120.89 10.9201 122.55V122.56Z" fill="#BA9E83"/>
</svg>
