<svg width="138" height="50" viewBox="0 0 138 50" fill="none" xmlns="http://www.w3.org/2000/svg">
<path d="M7.03442 25.984C7.03442 19.0252 12.4042 13.8288 19.7075 13.8288C27.0108 13.8288 32.3133 18.9896 32.3133 25.984C32.3133 32.9783 26.9436 38.1391 19.7075 38.1391C12.4714 38.1391 7.03442 32.9428 7.03442 25.984ZM28.9167 25.984C28.9167 20.7204 24.9744 16.8518 19.7075 16.8518C14.4406 16.8518 10.431 20.7244 10.431 25.984C10.431 31.2436 14.3733 35.1161 19.7075 35.1161C25.0416 35.1161 28.9167 31.2436 28.9167 25.984Z" fill="#006765"/>
<path d="M54.8402 22.7239C54.8402 28.019 50.8663 31.3147 44.512 31.3147H39.7195V37.8665H34.2153V14.0975H44.508C50.8623 14.0975 54.8362 17.3892 54.8362 22.7199L54.8402 22.7239ZM49.2688 22.7239C49.2688 20.1079 47.5685 18.5826 44.2075 18.5826H39.7235V26.8336H44.2075C47.5725 26.8336 49.2688 25.3043 49.2688 22.7239Z" fill="#006765"/>
<path d="M54.6741 35.5232L56.5444 31.3819C58.5492 32.844 61.5385 33.8595 64.3934 33.8595C67.6556 33.8595 68.9803 32.7728 68.9803 31.3107C68.9803 26.8612 55.1526 29.9198 55.1526 21.0919C55.1526 17.0533 58.4148 13.6905 65.1764 13.6905C68.1657 13.6905 71.2223 14.4018 73.4326 15.7967L71.7324 19.9736C69.5259 18.7169 67.2483 18.1044 65.1408 18.1044C61.8786 18.1044 60.6212 19.3255 60.6212 20.8231C60.6212 25.2015 74.4489 22.1825 74.4489 30.9077C74.4489 34.879 71.155 38.2774 64.3579 38.2774C60.5856 38.2774 56.7817 37.1552 54.6741 35.5271V35.5232Z" fill="#006765"/>
<path d="M75.6707 14.1014H81.1748V37.8704H75.6707V14.1014Z" fill="#006765"/>
<path d="M83.0768 25.984C83.0768 18.954 88.4465 13.8288 95.6826 13.8288C99.3521 13.8288 102.547 15.0854 104.722 17.5315L102.515 19.6693C100.681 17.733 98.4387 16.8518 95.821 16.8518C90.4513 16.8518 86.4774 20.7244 86.4774 25.984C86.4774 31.2436 90.4513 35.1161 95.821 35.1161C98.4387 35.1161 100.681 34.1994 102.515 32.2631L104.722 34.4009C102.547 36.8469 99.3521 38.1352 95.651 38.1352C88.4505 38.1352 83.0807 33.0099 83.0807 25.98L83.0768 25.984Z" fill="#006765"/>
<path d="M104.583 25.984C104.583 19.0252 109.953 13.8288 117.257 13.8288C124.56 13.8288 129.862 18.9896 129.862 25.984C129.862 32.9783 124.493 38.1391 117.257 38.1391C110.02 38.1391 104.583 32.9428 104.583 25.984ZM126.466 25.984C126.466 20.7204 122.523 16.8518 117.257 16.8518C111.99 16.8518 107.98 20.7244 107.98 25.984C107.98 31.2436 111.922 35.1161 117.257 35.1161C122.591 35.1161 126.466 31.2436 126.466 25.984Z" fill="#006765"/>
</svg>
