<?xml version="1.0" encoding="UTF-8"?>
<svg id="Camada_1" data-name="Camada 1" xmlns="http://www.w3.org/2000/svg" viewBox="0 0 372 366">
  <defs>
    <style>
      .cls-1 {
        fill: #fff;
      }
    </style>
  </defs>
  <path class="cls-1" d="M31.79,190.49c0-17.61,13.58-30.76,32.05-30.76s31.88,13.06,31.88,30.76-13.58,30.76-31.88,30.76-32.05-13.15-32.05-30.76ZM87.13,190.49c0-13.32-9.97-23.11-23.29-23.11s-23.46,9.8-23.46,23.11,9.97,23.11,23.46,23.11,23.29-9.8,23.29-23.11Z"/>
  <path class="cls-1" d="M152.69,182.24c0,13.4-10.05,21.74-26.12,21.74h-12.12v16.58h-13.92v-60.15h26.03c16.07,0,26.12,8.33,26.12,21.82ZM138.6,182.24c0-6.62-4.3-10.48-12.8-10.48h-11.34v20.88h11.34c8.51,0,12.8-3.87,12.8-10.4Z"/>
  <path class="cls-1" d="M152.27,214.63l4.73-10.48c5.07,3.7,12.63,6.27,19.85,6.27,8.25,0,11.6-2.75,11.6-6.45,0-11.26-34.97-3.52-34.97-25.86,0-10.22,8.25-18.73,25.35-18.73,7.56,0,15.29,1.8,20.88,5.33l-4.3,10.57c-5.58-3.18-11.34-4.73-16.67-4.73-8.25,0-11.43,3.09-11.43,6.88,0,11.08,34.97,3.44,34.97,25.52,0,10.05-8.33,18.65-25.52,18.65-9.54,0-19.16-2.84-24.49-6.96Z"/>
  <path class="cls-1" d="M205.37,160.42h13.92v60.15h-13.92v-60.15Z"/>
  <path class="cls-1" d="M224.1,190.49c0-17.79,13.58-30.76,31.88-30.76,9.28,0,17.36,3.18,22.86,9.37l-5.58,5.41c-4.64-4.9-10.31-7.13-16.93-7.13-13.58,0-23.63,9.8-23.63,23.11s10.05,23.11,23.63,23.11c6.62,0,12.29-2.32,16.93-7.22l5.58,5.41c-5.5,6.19-13.58,9.45-22.94,9.45-18.21,0-31.79-12.97-31.79-30.76Z"/>
  <path class="cls-1" d="M278.49,190.49c0-17.61,13.58-30.76,32.05-30.76s31.88,13.06,31.88,30.76-13.58,30.76-31.88,30.76-32.05-13.15-32.05-30.76ZM333.83,190.49c0-13.32-9.97-23.11-23.29-23.11s-23.46,9.8-23.46,23.11,9.97,23.11,23.46,23.11,23.29-9.8,23.29-23.11Z"/>
</svg>