<svg xmlns="http://www.w3.org/2000/svg" width="705.23" height="954.962" viewBox="0 0 705.23 954.962">
  <g id="Simbolo_Verde" data-name="Simbolo Verde" transform="translate(-92.622 -61.252)" opacity="0.1">
    <path id="Caminho_7010" data-name="Caminho 7010" d="M184.219,102.944c119.561-6.556,143.418,167.2,30.53,194.587C72.766,331.979,44.719,110.586,184.219,102.944Z" transform="translate(0.491 119.525)" fill="#006765"/>
    <path id="Caminho_7011" data-name="Caminho 7011" d="M298.111,61.323c119.212-4.151,128.1,175.384,17.69,186.479C180.877,261.379,172.847,65.667,298.111,61.323Z" transform="translate(335.514 0)" fill="#006765"/>
    <path id="Caminho_7012" data-name="Caminho 7012" d="M628.853,341.643C687.16,411.626,731.578,514.7,682.621,601.48c-46.4,82.2-137.134,123.013-229.384,116.573-92.289-6.4-187.332-59.2-241.992-133.837-28.2-38.522-46.2-85.772-39.53-134.108,5.819-42.323,33.556-81.039,75.608-93.142,36.155-10.435,67.617,5.7,95.431,27.543,33.323,26.185,62.069,57.569,97.6,81.078,41.47,27.427,89.729,37.746,138.608,28.009,54.116-10.785,102.608-45.466,140.9-83.832,38.483-38.56,70.72-84.957,77-140.315,5.9-51.75-14.78-104.393-59.431-132.983-42.129-27-97.1-27.97-142.487-9.388C545.1,147.483,507,186.586,477.133,230.5,408,332.022,395.861,455.346,366.107,571.182,341.822,665.76,284.68,787.532,169.387,785.4c-49.927-.931-49.966,76.655,0,77.586C276.766,864.963,364.9,783.808,406.8,690.549c47.017-104.625,52.681-221.082,91.048-328.5,17.069-47.793,41.7-94.772,78.246-130.539,28.823-28.241,72.039-51.711,112.462-33.595,39.647,17.729,37.009,68.237,19.591,101.173-23.354,44.185-65.172,82.746-109.319,105.673-40.112,20.832-80.108,19.164-117.233-4.772-34.836-22.5-62.961-54.31-95.819-79.526-38.095-29.211-83.211-49.112-132.13-43.293-53.845,6.4-102.1,38.25-130.927,84.065C59.524,461.708,104.1,588.057,180.171,666.846,254.033,743.347,358.7,792.924,465.418,796.3c108.66,3.414,211.927-48.026,273.143-137.988,64.164-94.267,48.1-211.656-7.487-305.69-13.772-23.315-30.065-45.039-47.367-65.832-13.422-16.1-41-13.849-54.854,0-15.944,15.944-13.461,38.716,0,54.854h0Z" transform="translate(0 153.194)" fill="#006765"/>
  </g>
</svg>
